<?xml version="1.0" standalone="no"?>
<!DOCTYPE svg PUBLIC "-//W3C//DTD SVG 20010904//EN"
 "http://www.w3.org/TR/2001/REC-SVG-20010904/DTD/svg10.dtd">
<svg version="1.0" xmlns="http://www.w3.org/2000/svg"
 width="1414.000000pt" height="2000.000000pt" viewBox="0 0 1414.000000 2000.000000"
 preserveAspectRatio="xMidYMid meet">

<g transform="translate(0.000000,2000.000000) scale(0.100000,-0.100000)"
fill="#000000" stroke="none">
<path d="M0 10000 l0 -10000 2468 2 c1357 2 2385 4 2286 5 l-182 3 -6 31 c-3
18 -6 50 -6 73 0 23 -5 47 -12 54 -8 8 -10 76 -7 244 8 473 0 650 -43 936 -20
133 -20 146 -5 176 15 33 15 35 -9 57 -28 27 -31 46 -6 52 14 4 15 5 1 6 -25
2 -30 57 -7 78 26 23 23 32 -22 52 -55 25 -71 50 -113 181 -59 182 -72 365
-42 580 8 58 19 139 25 180 30 239 29 236 72 285 21 25 99 62 158 76 19 5 57
6 83 2 56 -7 61 -14 78 -126 21 -144 67 -259 55 -137 -4 36 -11 106 -15 156
-5 50 -13 99 -18 108 -14 24 2 115 25 146 36 48 80 65 165 64 66 -1 81 -4 102
-24 30 -28 39 -22 36 22 -5 75 -3 87 18 114 39 49 70 64 139 64 68 0 103 -13
141 -54 28 -30 57 -34 65 -8 3 9 10 60 16 112 6 52 13 102 15 110 3 8 9 51 14
95 6 44 17 116 26 160 9 44 20 143 26 220 21 307 21 304 57 336 35 31 57 35
97 17 36 -16 61 -63 75 -138 18 -93 19 -615 2 -700 -31 -156 -40 -320 -31
-565 5 -132 11 -250 14 -262 14 -61 142 6 338 178 58 51 117 92 174 120 76 37
97 43 168 47 64 3 90 1 119 -13 77 -37 73 -88 -12 -141 -31 -20 -113 -92 -182
-159 -69 -68 -168 -165 -221 -216 -70 -68 -105 -112 -128 -158 -22 -42 -65
-97 -125 -160 -50 -53 -125 -136 -166 -185 -166 -197 -189 -223 -244 -275 -32
-30 -64 -64 -71 -75 -7 -12 -20 -67 -29 -123 -14 -84 -15 -130 -6 -275 15
-272 29 -492 40 -628 5 -69 12 -182 15 -251 3 -70 12 -174 21 -230 8 -57 18
-132 21 -166 l6 -63 -214 -3 c-118 -1 232 -2 776 -2 545 -1 920 1 834 2 l-157
3 -6 26 c-4 14 -6 179 -6 367 1 341 -3 460 -21 507 -5 14 -11 57 -13 95 -2 39
-13 97 -24 130 -37 115 -44 154 -31 194 6 20 15 40 20 46 5 5 9 20 9 34 0 24
0 24 15 5 15 -17 15 -16 1 11 -11 23 -13 55 -9 135 3 58 4 164 3 235 -7 331
-4 515 8 600 8 50 19 151 26 225 14 149 12 142 123 340 38 69 89 175 113 235
23 61 66 160 95 220 48 100 58 114 106 147 30 21 68 50 84 66 34 32 192 140
245 167 19 10 49 22 65 26 17 4 66 18 110 29 65 18 97 21 176 17 105 -5 146
-20 173 -62 42 -63 28 -128 -33 -160 -26 -13 -30 -13 -41 0 -7 8 -21 15 -31
15 -12 0 -19 7 -19 20 0 27 -26 25 -70 -5 -38 -26 -177 -52 -193 -36 -13 13
-57 0 -72 -22 -8 -12 -15 -32 -15 -44 0 -13 -4 -23 -10 -23 -5 0 -12 -11 -16
-25 -3 -14 -10 -25 -16 -25 -5 0 -24 -11 -42 -25 -18 -14 -40 -25 -49 -25 -16
0 -67 -68 -67 -89 0 -21 23 -22 51 -2 27 20 31 20 64 7 47 -20 48 -34 7 -140
-21 -55 -32 -71 -58 -84 -20 -9 -30 -20 -27 -28 9 -23 32 -16 52 17 10 16 46
59 80 95 49 51 68 64 91 64 17 0 30 -5 30 -10 0 -6 13 -4 30 5 34 17 34 16 31
-50 -3 -42 -20 -114 -51 -205 -22 -64 -36 -143 -45 -253 -6 -73 -5 -80 16
-103 43 -46 87 -67 128 -61 50 6 159 59 197 94 120 114 148 128 188 98 11 -8
24 -15 28 -15 9 0 -20 50 -35 61 -12 8 23 95 65 159 86 133 157 186 215 158
25 -12 28 -18 27 -63 0 -28 -10 -75 -22 -105 -12 -33 -23 -92 -27 -145 -10
-144 -10 -144 -86 -225 -133 -143 -196 -215 -217 -251 -12 -19 -43 -55 -69
-80 -50 -47 -71 -78 -131 -189 -42 -78 -172 -283 -204 -323 -13 -15 -35 -42
-50 -60 -35 -42 -94 -191 -114 -292 -13 -63 -15 -114 -11 -235 6 -172 21 -364
37 -485 6 -44 19 -159 30 -255 17 -153 38 -310 55 -417 l6 -33 -203 -3 c-112
-1 204 -2 702 -2 498 0 826 1 728 2 l-176 3 -1 268 c0 147 5 315 11 375 8 80
8 118 -1 150 -13 48 -32 213 -31 271 1 59 -19 142 -41 167 -10 12 -19 37 -19
55 0 18 -4 36 -10 39 -20 12 -10 85 22 152 47 101 47 102 50 189 3 69 7 86 31
120 29 43 34 73 16 91 -9 9 -9 19 0 40 9 23 9 37 -4 72 -8 24 -15 63 -15 87 0
24 -7 65 -16 91 -15 42 -16 75 -9 258 10 252 10 381 0 456 -9 68 -4 78 102
224 93 126 122 174 221 365 95 183 123 225 163 239 42 15 570 15 622 0 29 -8
68 -40 156 -127 64 -64 131 -127 147 -139 31 -22 44 -62 74 -233 7 -40 29 -98
56 -149 64 -122 61 -135 -42 -255 -84 -96 -142 -175 -178 -241 -15 -27 -41
-63 -56 -80 -16 -16 -52 -79 -80 -139 -91 -195 -189 -354 -259 -421 -33 -30
-136 -229 -152 -291 -5 -19 -13 -51 -19 -71 -42 -161 -42 -364 0 -813 37 -397
49 -502 70 -625 5 -33 10 -75 10 -92 l0 -32 -147 -4 c-82 -1 978 -4 2355 -5
l2502 -2 0 10000 0 10000 -7070 0 -7070 0 0 -10000z m3970 4445 c0 -5 -5 -3
-10 5 -5 8 -10 20 -10 25 0 6 5 3 10 -5 5 -8 10 -19 10 -25z m-465 -35 c3 -5
1 -10 -4 -10 -6 0 -11 5 -11 10 0 6 2 10 4 10 3 0 8 -4 11 -10z m-690 -50 c3
-5 1 -10 -4 -10 -6 0 -11 5 -11 10 0 6 2 10 4 10 3 0 8 -4 11 -10z m406 -57
c13 -16 12 -17 -3 -4 -17 13 -22 21 -14 21 2 0 10 -8 17 -17z m-251 -13 c0 -5
-2 -10 -4 -10 -3 0 -8 5 -11 10 -3 6 -1 10 4 10 6 0 11 -4 11 -10z m500 -30
c0 -5 -2 -10 -4 -10 -3 0 -8 5 -11 10 -3 6 -1 10 4 10 6 0 11 -4 11 -10z
m-500 -45 c0 -19 5 -37 11 -41 8 -5 6 -10 -5 -16 -10 -6 -20 -7 -23 -4 -4 3
-1 6 5 6 13 0 5 58 -9 75 -14 14 -10 25 6 19 9 -4 15 -19 15 -39z m40 4 c0 -6
-4 -7 -10 -4 -5 3 -10 11 -10 16 0 6 5 7 10 4 6 -3 10 -11 10 -16z m304 -75
c3 -8 2 -12 -4 -9 -6 3 -10 10 -10 16 0 14 7 11 14 -7z m137 -1 c13 -16 12
-17 -3 -4 -17 13 -22 21 -14 21 2 0 10 -8 17 -17z m-811 -14 c0 -6 -4 -7 -10
-4 -5 3 -10 11 -10 16 0 6 5 7 10 4 6 -3 10 -11 10 -16z m414 5 c3 -8 2 -12
-4 -9 -6 3 -10 10 -10 16 0 14 7 11 14 -7z m180 -10 c3 -8 2 -12 -4 -9 -6 3
-10 10 -10 16 0 14 7 11 14 -7z m-719 -84 c3 -5 1 -10 -4 -10 -6 0 -11 5 -11
10 0 6 2 10 4 10 3 0 8 -4 11 -10z m395 -21 c0 -6 -4 -7 -10 -4 -5 3 -10 11
-10 16 0 6 5 7 10 4 6 -3 10 -11 10 -16z m521 4 c13 -16 12 -17 -3 -4 -17 13
-22 21 -14 21 2 0 10 -8 17 -17z m-407 -59 c3 -8 2 -12 -4 -9 -6 3 -10 10 -10
16 0 14 7 11 14 -7z m276 -5 c0 -6 -4 -7 -10 -4 -5 3 -10 11 -10 16 0 6 5 7
10 4 6 -3 10 -11 10 -16z m-1086 -35 c3 -8 2 -12 -4 -9 -6 3 -10 10 -10 16 0
14 7 11 14 -7z m295 -28 c-3 -3 -11 5 -18 17 -13 21 -12 21 5 5 10 -10 16 -20
13 -22z m92 -33 c13 -16 12 -17 -3 -4 -10 7 -18 15 -18 17 0 8 8 3 21 -13z
m-487 -69 c3 -8 2 -12 -4 -9 -6 3 -10 10 -10 16 0 14 7 11 14 -7z m-509 -24
c3 -5 1 -10 -4 -10 -6 0 -11 5 -11 10 0 6 2 10 4 10 3 0 8 -4 11 -10z m440 0
c3 -5 1 -10 -4 -10 -6 0 -11 5 -11 10 0 6 2 10 4 10 3 0 8 -4 11 -10z m-811
-16 c3 -8 2 -12 -4 -9 -6 3 -10 10 -10 16 0 14 7 11 14 -7z m1314 -9 c-3 -3
-9 2 -12 12 -6 14 -5 15 5 6 7 -7 10 -15 7 -18z m-1460 -20 c-3 -3 -9 2 -12
12 -6 14 -5 15 5 6 7 -7 10 -15 7 -18z m429 -27 c-3 -8 -6 -5 -6 6 -1 11 2 17
5 13 3 -3 4 -12 1 -19z m321 -13 c-3 -3 -9 2 -12 12 -6 14 -5 15 5 6 7 -7 10
-15 7 -18z m1092 15 c0 -5 -2 -10 -4 -10 -3 0 -8 5 -11 10 -3 6 -1 10 4 10 6
0 11 -4 11 -10z m-760 -10 c0 -5 -2 -10 -4 -10 -3 0 -8 5 -11 10 -3 6 -1 10 4
10 6 0 11 -4 11 -10z m-1323 -32 c-3 -8 -6 -5 -6 6 -1 11 2 17 5 13 3 -3 4
-12 1 -19z m1097 -14 c3 -8 2 -12 -4 -9 -6 3 -10 10 -10 16 0 14 7 11 14 -7z
m457 -1 c13 -16 12 -17 -3 -4 -17 13 -22 21 -14 21 2 0 10 -8 17 -17z m-561
-34 c0 -6 -4 -7 -10 -4 -5 3 -10 11 -10 16 0 6 5 7 10 4 6 -3 10 -11 10 -16z
m-70 -24 c0 -5 -5 -3 -10 5 -5 8 -10 20 -10 25 0 6 5 3 10 -5 5 -8 10 -19 10
-25z m334 9 c3 -8 2 -12 -4 -9 -6 3 -10 10 -10 16 0 14 7 11 14 -7z m420 -10
c3 -8 2 -12 -4 -9 -6 3 -10 10 -10 16 0 14 7 11 14 -7z m-1220 -20 c3 -8 2
-12 -4 -9 -6 3 -10 10 -10 16 0 14 7 11 14 -7z m1416 -19 c7 -9 8 -15 2 -15
-5 0 -12 7 -16 15 -3 8 -4 15 -2 15 2 0 9 -7 16 -15z m-1040 -30 c0 -5 -5 -3
-10 5 -5 8 -10 20 -10 25 0 6 5 3 10 -5 5 -8 10 -19 10 -25z m118 10 c-3 -3
-9 2 -12 12 -6 14 -5 15 5 6 7 -7 10 -15 7 -18z m-570 -50 c-3 -3 -9 2 -12 12
-6 14 -5 15 5 6 7 -7 10 -15 7 -18z m760 0 c-3 -3 -9 2 -12 12 -6 14 -5 15 5
6 7 -7 10 -15 7 -18z m-644 -1 c3 -8 2 -12 -4 -9 -6 3 -10 10 -10 16 0 14 7
11 14 -7z m-376 -29 c-3 -3 -9 2 -12 12 -6 14 -5 15 5 6 7 -7 10 -15 7 -18z
m1167 5 c3 -5 1 -10 -4 -10 -6 0 -11 5 -11 10 0 6 2 10 4 10 3 0 8 -4 11 -10z
m523 -15 c-3 -3 -9 2 -12 12 -6 14 -5 15 5 6 7 -7 10 -15 7 -18z m-600 -10
c-3 -3 -9 2 -12 12 -6 14 -5 15 5 6 7 -7 10 -15 7 -18z m132 0 c14 -19 14 -19
-2 -6 -10 7 -18 18 -18 24 0 6 1 8 3 6 1 -2 9 -13 17 -24z m185 5 c3 -5 1 -10
-4 -10 -6 0 -11 5 -11 10 0 6 2 10 4 10 3 0 8 -4 11 -10z m-906 -75 c22 -15
41 -32 41 -37 0 -5 -14 -30 -32 -55 -17 -26 -31 -52 -31 -60 0 -31 -16 -9 -27
38 -14 57 -66 119 -115 137 -38 15 -151 11 -148 -4 1 -7 -5 -11 -15 -10 -9 0
-16 -5 -14 -12 1 -8 -2 -11 -7 -8 -13 8 -32 -53 -26 -83 11 -56 27 -89 55
-110 17 -12 30 -17 30 -11 0 5 9 1 19 -9 11 -11 47 -25 80 -32 91 -17 179 -66
215 -117 64 -90 24 -217 -87 -273 -40 -21 -158 -40 -191 -31 -14 4 -17 2 -11
-9 7 -11 6 -12 -6 -4 -8 6 -32 17 -54 24 -60 19 -122 50 -136 67 -14 17 -20
56 -8 49 4 -3 22 19 40 47 l34 53 5 -41 c12 -83 73 -141 170 -163 53 -11 126
-1 122 18 -1 7 2 9 9 6 17 -11 48 29 58 76 19 85 -11 133 -106 169 -57 21 -73
20 -57 -3 5 -7 0 -3 -11 8 -11 12 -40 28 -65 35 -56 17 -106 48 -147 90 -55
57 -56 171 0 231 12 13 21 27 20 31 -2 5 0 7 5 6 14 -3 62 22 62 32 0 6 4 9 8
6 5 -3 46 -2 93 2 95 8 157 -6 228 -53z m981 33 c35 -11 114 -60 125 -77 3 -5
-4 -20 -15 -33 -48 -56 -99 -132 -94 -140 3 -4 1 -8 -4 -8 -6 0 -8 25 -6 58 6
75 -34 159 -78 166 -7 1 -24 9 -38 17 -34 22 -91 23 -156 4 -60 -17 -71 -29
-53 -53 13 -16 12 -16 -7 0 -19 17 -21 16 -38 -3 -56 -65 -79 -152 -52 -193 9
-14 16 -29 16 -33 0 -4 -9 6 -20 22 l-20 30 0 -25 c0 -14 8 -37 17 -50 16 -24
16 -24 0 -11 -21 17 -21 12 2 -72 18 -64 70 -155 109 -190 55 -49 177 -86 244
-73 20 3 48 16 62 27 25 19 26 25 26 114 0 80 -3 96 -17 104 -26 13 -141 23
-145 12 -2 -5 -12 -3 -22 5 -17 12 3 14 170 13 152 0 184 -3 164 -12 -49 -23
-51 -30 -48 -149 l3 -113 33 -17 34 -16 -82 -4 c-45 -2 -86 0 -92 3 -5 3 -6
19 -2 34 l7 28 -46 -32 c-74 -50 -184 -57 -296 -19 -74 26 -177 119 -195 176
-4 12 -11 22 -16 22 -4 0 -11 7 -14 16 -3 8 -2 12 3 9 6 -3 5 9 0 27 -20 62
-12 160 16 224 14 32 24 67 21 78 -3 13 -2 16 5 9 7 -7 22 2 47 27 111 110
293 150 452 98z m2350 -283 c136 -345 154 -384 190 -402 21 -11 5 -13 -110
-13 l-135 0 35 18 c42 21 48 47 25 108 l-17 44 -201 -2 -201 -3 -18 -49 c-22
-59 -16 -83 25 -101 30 -13 27 -14 -58 -15 l-90 0 31 19 c18 11 40 39 54 67
60 127 240 550 240 564 0 12 100 84 106 77 1 -1 57 -141 124 -312z m3085 0
c136 -346 155 -387 187 -402 18 -9 -5 -12 -112 -12 -117 0 -130 2 -101 12 44
15 52 40 33 105 l-15 52 -202 0 -203 0 -16 -40 c-28 -70 -15 -110 39 -123 11
-2 -23 -5 -75 -5 -63 -1 -88 2 -74 8 12 5 33 24 47 42 21 28 229 493 262 586
11 32 93 96 106 83 3 -3 59 -141 124 -306z m3830 -17 c71 -182 138 -342 148
-355 11 -14 29 -29 41 -33 13 -6 -29 -9 -114 -9 -123 0 -132 1 -103 14 41 17
48 44 28 105 l-17 50 -202 0 -203 0 -18 -54 c-22 -63 -16 -82 27 -101 32 -14
30 -14 -54 -15 l-88 0 36 33 c28 26 59 88 159 320 69 158 125 293 125 300 0
10 85 75 100 76 3 0 63 -148 135 -331z m-5333 297 c25 -9 62 -31 83 -48 l36
-32 -51 -70 c-69 -94 -73 -97 -65 -54 32 175 -214 280 -356 152 -71 -64 -84
-101 -84 -233 0 -104 3 -121 27 -172 34 -73 99 -143 163 -176 68 -35 188 -39
232 -6 27 20 28 25 31 110 1 49 -2 95 -7 103 -5 8 -46 19 -102 26 l-94 13 190
0 c160 1 184 -1 155 -11 l-35 -12 0 -130 0 -130 35 -12 c32 -11 27 -12 -57
-12 l-93 -1 0 30 0 29 -35 -24 c-56 -38 -100 -48 -186 -43 -178 10 -314 134
-339 309 -27 189 84 348 283 404 65 19 203 13 269 -10z m2339 1 c25 -9 62 -30
82 -47 43 -36 46 -25 -40 -143 l-42 -59 6 51 c17 149 -143 247 -296 182 -98
-42 -151 -138 -151 -270 0 -173 109 -332 253 -371 58 -15 142 -7 175 18 26 19
27 25 30 117 3 113 6 111 -123 125 -69 7 -53 8 110 9 105 0 181 -3 170 -5 -49
-12 -55 -29 -55 -148 0 -119 6 -136 55 -148 11 -2 -22 -5 -74 -6 l-93 -1 6 31
6 31 -28 -18 c-66 -44 -86 -49 -182 -49 -84 0 -102 3 -152 28 -76 37 -143 104
-176 175 -24 50 -27 69 -27 157 0 84 4 108 23 146 49 99 140 172 252 204 68
18 205 14 271 -9z m1655 -5 c29 -12 64 -35 79 -51 l27 -28 -59 -80 -59 -80 3
56 c5 69 -15 112 -70 156 -83 66 -239 38 -306 -55 -135 -185 -30 -502 186
-565 90 -26 200 -3 267 55 16 13 18 13 14 1 -8 -27 -88 -79 -145 -96 -89 -26
-204 -16 -286 24 -138 68 -215 201 -205 351 12 159 116 277 288 327 68 20 204
12 266 -15z m2019 8 c44 -19 105 -60 105 -70 0 -4 -17 -36 -39 -69 l-38 -61
-7 43 c-15 96 -94 159 -199 160 -90 1 -131 -38 -130 -122 1 -94 47 -135 196
-176 148 -41 216 -94 233 -180 14 -73 -39 -164 -120 -207 -35 -19 -57 -22
-151 -22 -105 0 -114 2 -178 33 -38 19 -71 40 -73 47 -3 7 13 42 35 77 35 55
41 59 41 36 1 -98 97 -179 216 -182 49 -1 69 4 91 20 61 44 80 131 43 192 -24
38 -68 60 -187 92 -152 40 -224 110 -224 213 0 132 98 202 271 194 47 -3 99
-11 115 -18z m632 -9 c28 -12 60 -31 71 -43 l20 -22 -41 -65 c-23 -36 -43 -58
-44 -50 -12 97 -37 136 -105 171 -55 28 -140 29 -176 2 -79 -59 -66 -182 24
-235 18 -10 72 -30 120 -44 49 -14 111 -37 137 -52 154 -83 118 -294 -59 -348
-106 -32 -273 -6 -341 53 l-33 28 37 58 37 59 17 -52 c9 -28 27 -62 39 -75 38
-40 107 -68 169 -69 101 0 151 46 151 142 0 83 -47 122 -184 156 -173 42 -262
135 -243 252 12 75 71 131 162 155 54 15 186 3 242 -21z m-12137 -15 c0 -5 -5
-3 -10 5 -5 8 -10 20 -10 25 0 6 5 3 10 -5 5 -8 10 -19 10 -25z m65 25 c3 -5
1 -10 -4 -10 -6 0 -11 5 -11 10 0 6 2 10 4 10 3 0 8 -4 11 -10z m863 3 c-10
-2 -18 -9 -18 -14 0 -5 -6 -9 -14 -9 -18 0 -24 -33 -25 -147 0 -61 4 -93 11
-93 7 0 7 -4 1 -12 -13 -18 -14 -99 -1 -115 7 -9 7 -13 0 -13 -6 0 -9 -47 -9
-130 2 -116 4 -131 22 -144 11 -9 29 -16 40 -17 11 -1 0 -5 -25 -8 -49 -7
-227 -1 -195 7 11 2 28 11 38 20 15 13 17 38 17 242 0 167 -3 230 -12 239 -9
10 -9 12 -1 7 15 -8 17 130 2 139 -5 4 -7 11 -3 16 3 5 -10 16 -28 24 -31 13
-25 14 92 13 69 0 117 -2 108 -5z m1034 -15 c9 -13 80 -99 158 -193 79 -93
173 -205 209 -249 l66 -78 3 208 c3 229 -5 282 -46 314 l-25 20 84 -1 c65 0
79 -3 63 -11 -47 -22 -49 -40 -49 -389 0 -181 -2 -329 -5 -329 -3 0 -122 140
-265 312 l-260 311 -3 -209 c-4 -275 2 -329 38 -366 l28 -28 -81 0 c-72 0 -79
2 -57 13 47 24 50 43 50 342 l0 280 -42 37 -43 37 81 1 c74 0 83 -2 96 -22z
m1005 12 c-59 -18 -57 -5 -57 -356 l0 -324 105 0 c145 0 197 25 264 127 37 55
38 48 10 -60 -24 -94 -33 -115 -43 -98 -5 8 -84 11 -264 11 -236 0 -255 1
-228 15 56 29 55 26 55 344 0 174 -4 301 -10 312 -5 10 -24 23 -42 28 -24 7 3
9 103 9 89 0 125 -3 107 -8z m1384 -32 c97 -122 413 -494 421 -497 15 -5 4
435 -12 477 -7 18 -24 39 -39 47 -24 13 -20 14 64 14 79 1 87 -1 65 -12 -53
-27 -55 -44 -54 -396 l0 -324 -30 36 c-17 20 -134 159 -261 310 l-230 273 -3
-253 c-3 -274 3 -314 50 -333 17 -6 0 -9 -62 -9 -59 0 -78 3 -63 9 45 18 48
39 51 334 l3 279 -42 43 -43 44 75 0 76 0 34 -42z m1579 24 l-35 -17 0 -255
c0 -246 1 -257 23 -297 60 -114 224 -138 316 -46 57 56 69 102 74 273 6 240
-12 325 -73 351 -12 5 16 8 75 8 65 0 88 -3 73 -9 -51 -21 -56 -44 -63 -298
-7 -263 -11 -281 -82 -349 -90 -87 -288 -82 -375 9 -66 70 -68 78 -73 358 l-5
255 -35 17 -35 18 125 0 125 0 -35 -18z m2677 -47 c18 -90 17 -91 -32 -37 -65
73 -92 82 -229 82 l-116 0 0 -165 0 -165 93 0 c111 0 159 12 187 47 l20 26 0
-84 c-1 -77 -2 -82 -15 -58 -21 40 -60 52 -178 57 l-107 4 2 -168 3 -169 122
2 c149 1 182 16 255 111 26 35 48 60 48 57 0 -4 -12 -51 -27 -105 -23 -88 -28
-98 -44 -90 -10 6 -131 10 -276 10 l-258 0 32 20 c18 11 35 30 38 42 3 13 4
156 3 318 l-3 295 -35 18 c-34 17 -28 17 235 15 l269 -3 13 -60z m1258 50
c-22 -8 -41 -15 -43 -15 -1 0 -1 -149 0 -331 l3 -332 105 2 c135 2 175 20 244
111 32 42 47 56 43 40 -4 -14 -17 -62 -28 -107 -19 -74 -23 -81 -40 -73 -10 6
-124 10 -266 10 l-248 0 32 20 c17 10 37 28 42 39 17 30 15 592 -2 614 -6 10
-26 21 -42 26 -21 7 9 9 105 10 129 0 133 -1 95 -14z m-9568 -87 c-3 -8 -6 -5
-6 6 -1 11 2 17 5 13 3 -3 4 -12 1 -19z m1141 -34 c-4 -3 -12 5 -18 18 -12 22
-12 22 6 6 10 -10 15 -20 12 -24z m-494 -10 c3 -8 2 -12 -4 -9 -6 3 -10 10
-10 16 0 14 7 11 14 -7z m26 -39 c7 -9 8 -15 2 -15 -5 0 -12 7 -16 15 -3 8 -4
15 -2 15 2 0 9 -7 16 -15z m-492 -30 c-3 -3 -9 2 -12 12 -6 14 -5 15 5 6 7 -7
10 -15 7 -18z m417 5 c3 -5 1 -10 -4 -10 -6 0 -11 5 -11 10 0 6 2 10 4 10 3 0
8 -4 11 -10z m-1087 -105 c-3 -3 -9 2 -12 12 -6 14 -5 15 5 6 7 -7 10 -15 7
-18z m1533 8 c13 -16 12 -17 -3 -4 -17 13 -22 21 -14 21 2 0 10 -8 17 -17z
m-1201 -34 c0 -6 -4 -7 -10 -4 -5 3 -10 11 -10 16 0 6 5 7 10 4 6 -3 10 -11
10 -16z m2591 4 c13 -16 12 -17 -3 -4 -10 7 -18 15 -18 17 0 8 8 3 21 -13z
m-2131 -23 c6 -11 8 -20 6 -20 -3 0 -10 9 -16 20 -6 11 -8 20 -6 20 3 0 10 -9
16 -20z m-1283 4 c-3 -3 -12 -4 -19 -1 -8 3 -5 6 6 6 11 1 17 -2 13 -5z m953
-75 c0 -6 -4 -7 -10 -4 -5 3 -10 11 -10 16 0 6 5 7 10 4 6 -3 10 -11 10 -16z
m128 -94 c-3 -3 -9 2 -12 12 -6 14 -5 15 5 6 7 -7 10 -15 7 -18z m1052 4 c0
-6 -4 -7 -10 -4 -5 3 -10 11 -10 16 0 6 5 7 10 4 6 -3 10 -11 10 -16z m-1526
-25 c3 -8 2 -12 -4 -9 -6 3 -10 10 -10 16 0 14 7 11 14 -7z m800 -80 c3 -8 2
-12 -4 -9 -6 3 -10 10 -10 16 0 14 7 11 14 -7z m516 -99 c7 -9 8 -15 2 -15 -5
0 -12 7 -16 15 -3 8 -4 15 -2 15 2 0 9 -7 16 -15z m-1252 -140 c-3 -3 -9 2
-12 12 -6 14 -5 15 5 6 7 -7 10 -15 7 -18z m473 -22 c13 -16 12 -17 -3 -4 -10
7 -18 15 -18 17 0 8 8 3 21 -13z m350 0 c13 -16 12 -17 -3 -4 -10 7 -18 15
-18 17 0 8 8 3 21 -13z m471 -119 c48 -25 62 -79 33 -122 -15 -20 -14 -24 10
-49 31 -34 33 -80 5 -115 -10 -14 -17 -27 -15 -30 2 -2 -47 -5 -110 -7 l-115
-3 0 165 c0 90 2 166 5 169 12 12 161 5 187 -8z m418 -6 c0 -20 -13 -22 -118
-18 l-63 2 3 -54 3 -53 78 -3 c69 -3 77 -5 77 -22 0 -18 -7 -20 -79 -20 l-80
0 0 -55 0 -55 89 0 c66 0 89 -3 93 -14 3 -8 3 -17 0 -20 -4 -3 -55 -6 -115 -6
l-108 0 0 148 c0 105 -4 152 -12 161 -10 11 -10 13 0 7 7 -4 12 -1 12 7 0 11
22 14 110 13 98 -1 110 -2 110 -18z m171 -70 c0 -51 1 -118 2 -148 l2 -55 78
-3 c69 -3 77 -5 77 -22 0 -19 -7 -20 -100 -20 l-100 0 0 164 c0 162 2 172 33
175 4 1 7 -41 8 -91z m490 -76 c38 -90 69 -165 69 -167 0 -3 -9 -5 -21 -5 -15
0 -25 11 -36 40 l-16 39 -84 0 -85 0 -16 -39 c-13 -30 -23 -40 -41 -40 -15 0
-21 5 -18 13 59 137 76 184 72 195 -3 7 -1 11 4 8 5 -3 16 13 26 37 24 61 44
89 62 85 9 -2 42 -68 84 -166z m311 38 c-1 -69 -7 -137 -13 -152 -13 -32 -64
-58 -113 -58 -29 0 -36 4 -36 20 0 16 7 20 37 20 24 0 45 8 60 22 22 20 23 29
23 143 0 67 3 125 7 129 4 4 14 5 23 4 13 -3 15 -22 12 -128z m314 65 c14 -33
38 -91 54 -130 15 -38 36 -87 44 -107 16 -37 16 -38 -6 -38 -17 0 -27 10 -40
40 l-17 40 -84 0 -84 0 -16 -40 c-11 -29 -21 -40 -36 -40 -26 0 -26 5 2 66 13
27 44 97 68 156 39 96 56 119 82 114 5 -1 19 -28 33 -61z m435 40 c19 -11 32
-27 39 -54 12 -47 2 -80 -34 -109 -14 -11 -26 -23 -26 -26 0 -3 16 -30 35 -60
19 -30 35 -58 35 -61 0 -3 -10 -5 -23 -5 -18 0 -32 15 -61 65 -38 64 -38 65
-82 65 l-44 0 0 -65 c0 -63 -1 -65 -25 -65 l-25 0 0 164 c0 117 3 165 12 168
27 9 172 -4 199 -17z m546 10 c47 -11 66 -103 27 -135 -12 -10 -10 -15 10 -31
30 -24 40 -64 25 -101 -18 -44 -55 -58 -159 -58 l-90 0 0 163 c0 90 2 166 4
168 5 5 154 0 183 -6z m633 -66 l0 -69 101 0 100 0 -1 58 c-2 81 -2 82 20 82
19 0 20 -7 20 -165 0 -158 -1 -165 -20 -165 -18 0 -20 7 -20 75 l0 75 -100 0
-100 0 0 -75 c0 -68 -2 -75 -20 -75 -19 0 -20 7 -20 169 0 164 1 169 20 164
18 -5 20 -14 20 -74z m968 61 c17 -11 32 -24 32 -29 0 -5 3 -16 6 -25 10 -26
-31 -19 -49 8 -30 45 -131 38 -143 -10 -9 -37 18 -60 86 -73 109 -22 153 -92
98 -156 -52 -59 -190 -50 -223 16 -20 38 -19 49 5 49 11 0 20 -5 20 -10 0 -6
11 -22 25 -35 41 -42 139 -29 151 19 11 43 -10 62 -88 81 -81 20 -118 49 -118
92 0 34 24 71 54 83 39 16 109 11 144 -10z m1147 -10 c14 -13 25 -32 25 -42 0
-25 -37 -24 -45 2 -7 22 -63 41 -97 33 -36 -9 -48 -23 -48 -55 0 -33 30 -50
107 -63 81 -13 120 -72 89 -133 -33 -64 -163 -77 -222 -21 -27 25 -33 69 -9
69 9 0 20 -11 26 -24 32 -70 169 -58 169 14 0 36 -27 56 -87 66 -88 14 -136
68 -112 126 17 42 54 59 121 55 44 -2 64 -9 83 -27z m2509 -4 c48 -36 70 -80
70 -142 1 -132 -149 -210 -268 -140 -117 68 -109 234 15 299 51 27 136 19 183
-17z m-4875 -71 c21 -49 52 -123 69 -162 l31 -73 -23 0 c-18 0 -27 9 -39 40
l-15 40 -85 0 -84 0 -18 -40 c-12 -26 -25 -40 -37 -40 -10 0 -18 3 -18 7 0 4
30 78 67 166 61 146 68 158 90 155 20 -2 31 -18 62 -93z m854 -64 c37 -88 67
-162 67 -165 0 -3 -8 -6 -18 -6 -12 0 -25 14 -37 40 l-18 40 -84 0 -85 0 -15
-40 c-12 -30 -22 -40 -39 -40 -23 0 -18 15 113 318 3 6 15 12 28 12 19 0 31
-21 88 -159z m753 6 c34 -81 65 -154 68 -162 4 -11 -1 -15 -17 -15 -16 0 -26
11 -39 40 l-17 40 -84 0 -84 0 -16 -40 c-11 -30 -21 -40 -37 -40 -12 0 -20 4
-18 9 2 5 32 79 68 165 60 145 67 156 89 154 21 -3 33 -23 87 -151z m414 -12
c0 -158 -1 -165 -20 -165 -19 0 -20 7 -20 165 0 158 1 165 20 165 19 0 20 -7
20 -165z m576 85 c27 -44 51 -79 54 -79 3 0 27 35 53 79 40 66 53 80 73 80 29
0 32 8 -48 -112 -56 -84 -58 -90 -58 -153 0 -58 -2 -65 -20 -65 -18 0 -20 7
-20 65 0 63 -2 69 -58 153 -80 119 -77 112 -49 112 19 0 34 -16 73 -80z m530
-73 c34 -81 65 -154 68 -162 4 -11 -1 -15 -17 -15 -16 0 -26 11 -39 40 l-17
40 -84 0 -84 0 -16 -40 c-11 -30 -21 -40 -37 -40 -12 0 -20 4 -18 9 2 5 32 79
68 165 60 145 67 156 89 154 21 -3 33 -23 87 -151z m405 124 c22 -23 29 -39
29 -69 0 -42 -30 -92 -56 -92 -18 0 -18 -6 4 -38 10 -15 29 -44 41 -64 l23
-38 -26 0 c-20 0 -32 12 -62 66 l-36 65 -47 -3 -46 -3 -3 -62 c-3 -55 -6 -63
-22 -63 -19 0 -20 8 -20 165 l0 165 96 0 c92 0 97 -1 125 -29z m369 -118 c35
-82 67 -156 72 -165 7 -15 4 -18 -15 -18 -19 0 -27 9 -40 40 l-15 40 -85 0
-84 0 -18 -40 c-12 -26 -25 -40 -37 -40 -10 0 -18 3 -18 6 0 3 30 78 67 165
89 211 89 211 173 12z m410 133 c0 -11 -15 -16 -52 -18 l-53 -3 -3 -147 c-2
-140 -4 -148 -22 -148 -19 0 -20 7 -20 150 l0 150 -50 0 c-38 0 -50 4 -50 15
0 13 21 15 125 15 102 0 125 -3 125 -14z m906 -113 l99 -128 3 128 c2 119 4
127 22 127 19 0 20 -8 20 -165 0 -151 -2 -165 -17 -165 -11 1 -60 55 -120 132
l-103 131 0 -131 c0 -125 -1 -132 -20 -132 -19 0 -20 7 -20 165 0 210 1 211
136 38z m344 -18 l0 -145 80 0 c73 0 80 -2 80 -20 0 -19 -7 -20 -105 -20
l-105 0 0 165 0 165 25 0 25 0 0 -145z m320 -20 c0 -158 -1 -165 -20 -165 -19
0 -20 7 -20 165 0 158 1 165 20 165 19 0 20 -7 20 -165z m284 50 c49 -64 96
-120 103 -126 11 -9 13 11 13 115 0 119 1 126 20 126 19 0 20 -7 20 -165 0
-210 -1 -211 -136 -38 l-99 128 -3 -128 -3 -127 -24 0 -25 0 0 165 c0 164 0
165 23 165 16 0 44 -29 111 -115z m536 100 c0 -12 -17 -15 -90 -15 l-90 0 0
-55 0 -55 75 0 c68 0 75 -2 75 -20 0 -18 -7 -20 -75 -20 l-75 0 0 -55 0 -55
90 0 c83 0 90 -1 90 -20 0 -19 -7 -20 -115 -20 l-115 0 0 165 0 165 115 0 c96
0 115 -3 115 -15z m-10716 -511 c3 -8 2 -12 -4 -9 -6 3 -10 10 -10 16 0 14 7
11 14 -7z m270 -7456 c28 -28 37 -51 59 -143 33 -140 68 -342 97 -560 13 -98
13 -324 0 -423 -10 -73 -2 -118 23 -134 24 -15 54 -8 79 20 30 33 42 64 63
162 26 121 31 137 85 306 50 158 59 195 80 364 18 143 41 222 71 253 48 48
120 32 155 -34 22 -43 28 -176 14 -304 -6 -60 -15 -168 -20 -240 -6 -96 -17
-159 -40 -240 -71 -246 -89 -356 -91 -545 -2 -150 1 -186 19 -255 37 -143 59
-209 84 -260 32 -62 41 -132 28 -210 -5 -33 -15 -112 -20 -175 -10 -111 -17
-156 -59 -375 -11 -55 -24 -161 -31 -235 -6 -74 -17 -189 -25 -255 -7 -66 -19
-178 -25 -250 -6 -71 -16 -175 -23 -230 -7 -61 -11 -207 -10 -372 l2 -273
-435 0 -436 0 7 38 c3 20 6 85 5 143 -1 63 3 116 9 128 12 22 22 158 23 316 1
70 5 103 14 113 8 7 14 22 14 32 0 10 6 20 12 22 8 3 12 23 10 57 -1 29 5 73
13 98 9 25 13 54 9 65 -3 10 -2 24 3 31 30 42 40 164 15 189 -16 16 -15 33 3
48 19 16 7 28 -57 59 -27 12 -48 26 -48 31 0 4 -10 10 -23 14 -14 3 -27 18
-35 38 -6 18 -28 58 -47 88 -35 54 -87 156 -119 234 -21 52 -41 140 -56 251
-15 119 -30 184 -47 219 -8 15 -12 39 -9 52 5 19 3 22 -10 17 -12 -4 -15 0
-12 18 3 21 8 24 38 21 37 -4 79 -31 50 -33 -8 0 -4 -5 9 -10 l24 -9 -21 -23
c-12 -13 -22 -28 -22 -34 0 -12 23 -23 49 -23 10 0 47 -24 83 -52 37 -29 95
-68 131 -85 61 -31 70 -33 175 -33 107 0 111 -1 131 -26 12 -15 27 -24 35 -21
8 3 17 -1 20 -9 3 -8 12 -14 19 -14 14 0 27 25 43 80 4 13 16 38 28 55 54 79
99 135 108 135 6 0 39 -14 74 -31 66 -33 100 -36 70 -7 -9 9 -16 23 -16 31 0
8 -7 18 -16 21 -15 6 -15 8 2 27 18 20 18 21 -1 35 -10 8 -23 14 -28 14 -15 0
-36 33 -37 57 0 16 -8 24 -27 29 -50 10 -53 13 -53 44 0 34 -14 38 -42 13 -10
-9 -42 -20 -71 -25 -184 -30 -290 -9 -370 73 -26 27 -49 49 -51 49 -2 0 -7
-23 -11 -51 -8 -55 -21 -67 -55 -49 -12 6 -34 14 -48 16 -15 3 -36 14 -47 25
-25 25 -93 69 -105 69 -18 0 -10 -33 12 -57 12 -13 20 -25 17 -27 -9 -9 -110
-13 -115 -5 -6 10 9 63 36 124 10 22 21 56 24 75 10 61 41 98 108 130 34 17
65 36 69 42 18 29 20 154 3 228 -9 41 -23 104 -31 140 -8 36 -19 110 -24 165
-14 156 -27 756 -17 792 17 64 112 95 167 57 46 -33 57 -93 81 -444 6 -86 24
-236 40 -334 19 -114 30 -215 30 -278 0 -82 3 -100 16 -105 28 -11 48 11 67
73 19 63 19 179 -1 299 -6 33 -11 173 -12 310 -1 240 -6 332 -30 530 -16 131
3 163 99 164 36 1 48 -4 75 -31z m9966 -585 c14 -9 40 -34 59 -55 30 -35 38
-39 65 -33 17 4 61 9 99 12 60 4 73 2 112 -21 70 -42 88 -75 93 -175 2 -47 -3
-154 -12 -237 -9 -83 -16 -198 -16 -256 0 -122 -22 -240 -75 -403 -19 -60 -40
-139 -46 -175 -6 -36 -31 -144 -55 -240 -39 -155 -46 -201 -64 -415 -32 -399
-40 -602 -40 -1004 0 -368 7 -503 35 -711 7 -52 11 -98 8 -103 -2 -4 -212 -7
-467 -7 l-463 0 -13 39 c-7 23 -10 54 -6 77 9 52 9 51 -1 284 -6 125 -6 215 0
230 5 14 11 77 13 140 2 63 6 147 9 185 9 123 10 355 1 355 -5 0 -5 26 -2 58
4 31 6 71 5 87 -3 56 -2 90 7 170 6 47 6 99 1 125 -6 30 -5 50 2 62 19 30 13
112 -9 141 -11 14 -20 32 -20 41 0 18 38 36 76 36 35 0 29 17 -8 25 -77 15
-96 25 -101 54 -3 16 -17 41 -30 57 -18 22 -22 34 -16 51 9 25 -4 39 -40 45
-28 4 -72 76 -64 106 2 10 -4 40 -15 67 -34 89 -45 195 -39 395 10 335 21 361
175 418 37 13 79 26 95 29 33 6 33 10 2 39 -27 25 -33 58 -12 71 6 4 37 18 67
30 52 22 55 22 84 5 16 -9 40 -36 53 -59 20 -36 21 -46 11 -62 -10 -16 -8 -27
9 -63 23 -46 63 -171 63 -195 0 -8 14 -49 31 -91 28 -70 39 -115 55 -222 10
-63 13 -67 35 -40 11 14 32 50 46 80 13 30 33 60 42 67 10 7 24 25 30 41 18
44 58 62 143 63 40 1 84 4 98 8 22 7 21 8 -18 15 -52 9 -83 36 -107 94 -19 45
-21 39 24 119 18 32 18 35 0 89 -21 62 -56 124 -70 124 -14 0 -25 -36 -39
-131 -10 -64 -10 -91 -1 -107 6 -11 11 -47 11 -80 0 -72 -17 -91 -82 -94 -37
-2 -51 3 -86 32 -33 28 -42 42 -42 68 0 24 4 32 18 32 10 0 25 13 34 28 27 45
-1 122 -60 163 -18 13 -91 137 -136 234 -32 68 -48 88 -57 73 -5 -7 -9 -27 -9
-45 0 -32 -14 -51 -24 -34 -3 5 -2 22 3 37 5 16 15 56 22 89 7 33 21 76 30 97
49 98 172 114 264 33 52 -45 69 -45 93 1 6 12 31 31 54 43 34 18 53 21 93 16
28 -3 61 -13 75 -22z m-8010 -208 c16 -8 41 -31 56 -51 30 -38 33 -39 121 -14
124 35 246 -51 273 -193 9 -49 9 -86 0 -159 -6 -52 -12 -135 -13 -184 -2 -87
-1 -90 36 -150 72 -119 117 -239 117 -315 0 -28 -17 -61 -79 -155 -178 -270
-341 -570 -363 -669 -16 -73 -16 -318 1 -590 6 -104 18 -347 27 -540 8 -192
22 -393 30 -445 7 -52 14 -107 14 -122 l0 -28 -457 0 c-252 0 -464 4 -472 9
-12 8 -13 77 -6 463 14 708 13 798 -9 907 -15 73 -17 97 -8 112 19 30 14 59
-10 68 -19 7 -26 24 -41 92 -10 46 -23 95 -28 108 -6 14 -14 43 -19 65 -5 23
-16 68 -25 101 -78 281 -84 687 -14 960 13 48 24 137 29 225 9 169 16 212 41
261 28 56 62 74 144 74 l70 0 26 55 c39 81 67 103 139 108 50 4 66 1 104 -22
24 -14 49 -26 55 -26 6 0 26 13 44 30 19 16 45 34 58 40 31 13 122 4 159 -15z
m9613 1 c18 -7 46 -29 61 -47 42 -50 52 -53 90 -30 37 23 90 27 151 10 53 -15
129 -91 144 -144 14 -50 14 -175 1 -324 -12 -132 -9 -144 56 -258 56 -99 99
-229 91 -283 -3 -26 -24 -66 -64 -122 -77 -108 -107 -156 -189 -308 -37 -69
-87 -161 -112 -205 -88 -160 -100 -255 -83 -636 6 -151 16 -328 21 -394 5 -66
12 -205 15 -310 3 -104 13 -257 21 -340 9 -82 17 -166 18 -185 l1 -35 -465 0
-465 0 -1 40 c-3 87 -3 542 0 575 7 75 20 508 17 565 -1 33 -12 109 -23 169
-19 104 -19 110 -2 141 15 29 13 78 -3 61 -10 -10 -43 25 -43 46 0 11 -5 28
-11 39 -5 11 -15 47 -20 80 -5 33 -14 68 -19 77 -16 28 -67 250 -81 352 -32
226 -4 660 50 803 6 16 11 81 11 145 0 133 21 251 52 295 28 39 74 57 146 57
65 0 76 7 86 56 9 40 59 91 101 103 41 11 107 -2 146 -29 39 -28 60 -25 99 15
32 33 37 35 102 35 38 0 83 -6 101 -14z m-5473 -281 c-7 -9 -15 -13 -17 -11
-7 7 7 26 19 26 6 0 6 -6 -2 -15z m-6727 -929 c32 -8 35 -22 6 -31 -14 -5 -25
-2 -30 6 -7 11 -10 9 -15 -9 -6 -20 -27 -28 -25 -9 1 4 1 19 1 33 0 19 4 24
18 21 9 -3 29 -8 45 -11z m259 -13 c27 -24 24 -63 -5 -63 -29 0 -47 18 -47 45
0 38 22 46 52 18z m505 -9 c17 -26 16 -27 -11 -50 -27 -24 -79 -32 -102 -16
-16 11 -32 45 -27 60 3 6 14 12 26 12 12 0 29 5 37 10 27 18 59 11 77 -16z
m-197 -70 c48 -19 65 -45 50 -74 -13 -25 -48 -34 -111 -28 -81 8 -143 69 -85
84 14 3 30 12 37 20 15 19 59 18 109 -2z m-250 -20 c0 -8 -4 -12 -10 -9 -5 3
-10 13 -10 21 0 8 5 12 10 9 6 -3 10 -13 10 -21z m37 -1416 c-3 -8 -6 -5 -6 6
-1 11 2 17 5 13 3 -3 4 -12 1 -19z"/>
<path d="M4497 13109 c-54 -122 -95 -224 -93 -226 2 -2 87 -2 189 -1 l185 3
-82 205 c-45 113 -87 213 -92 223 -9 15 -28 -21 -107 -204z"/>
<path d="M7675 13320 c-3 -6 -48 -107 -100 -225 l-93 -215 189 0 c104 0 189 3
189 8 0 8 -170 435 -175 440 -2 2 -6 -2 -10 -8z"/>
<path d="M11480 13284 c-12 -27 -55 -126 -96 -220 -41 -95 -74 -174 -74 -178
0 -3 85 -6 189 -6 l189 0 -89 221 c-48 122 -91 224 -93 227 -3 3 -15 -17 -26
-44z"/>
<path d="M2030 12315 l0 -55 58 0 c44 0 63 5 75 18 42 46 3 92 -78 92 l-55 0
0 -55z"/>
<path d="M2030 12171 l0 -61 65 0 c52 0 69 4 85 20 25 25 25 41 2 70 -15 19
-31 24 -85 27 l-67 4 0 -60z"/>
<path d="M3124 12262 l-32 -77 34 -3 c19 -2 49 -2 68 0 l35 3 -31 78 c-17 42
-34 77 -37 77 -3 0 -20 -35 -37 -78z"/>
<path d="M3792 12263 c-18 -42 -30 -78 -28 -80 2 -2 33 -3 69 -1 l65 3 -32 77
c-17 43 -34 78 -37 78 -3 0 -20 -34 -37 -77z"/>
<path d="M4150 12300 l0 -70 50 0 c61 0 99 16 106 47 16 61 -21 93 -106 93
l-50 0 0 -70z"/>
<path d="M4713 12315 l0 -55 62 0 c69 0 88 12 88 57 0 37 -28 53 -93 53 l-57
0 0 -55z"/>
<path d="M4717 12223 c-4 -3 -7 -30 -7 -60 l0 -53 69 0 c79 0 101 13 101 60 0
41 -32 60 -101 60 -30 0 -59 -3 -62 -7z"/>
<path d="M9933 12349 c-18 -11 -38 -37 -48 -61 -55 -138 114 -248 219 -143 63
63 52 155 -24 208 -34 24 -107 22 -147 -4z"/>
<path d="M5141 12266 c-17 -41 -31 -77 -31 -80 0 -3 29 -6 65 -6 36 0 65 4 65
9 0 12 -51 133 -60 144 -4 5 -22 -25 -39 -67z"/>
<path d="M5986 12308 c-33 -78 -46 -111 -46 -119 0 -5 30 -9 66 -9 75 0 74 -5
24 105 l-28 60 -16 -37z"/>
<path d="M6722 12263 c-18 -42 -30 -78 -28 -80 2 -2 33 -3 69 -1 l65 3 -32 77
c-17 43 -34 78 -37 78 -3 0 -20 -34 -37 -77z"/>
<path d="M8242 12263 c-18 -42 -30 -78 -28 -80 2 -2 33 -3 69 -1 l65 3 -32 77
c-17 43 -34 78 -37 78 -3 0 -20 -34 -37 -77z"/>
<path d="M8594 12356 c-3 -7 -4 -38 -2 -67 l3 -54 56 -3 c44 -2 61 1 82 18 36
29 36 71 1 99 -32 25 -131 30 -140 7z"/>
<path d="M9022 12269 c-18 -39 -32 -76 -32 -80 0 -5 29 -9 65 -9 36 0 65 4 65
8 0 12 -50 136 -59 145 -4 4 -22 -25 -39 -64z"/>
<path d="M1606 1620 c3 -14 12 -32 20 -40 24 -25 18 14 -7 41 l-20 24 7 -25z"/>
<path d="M1552 1590 c0 -14 2 -19 5 -12 2 6 2 18 0 25 -3 6 -5 1 -5 -13z"/>
<path d="M1650 1551 c0 -6 5 -13 10 -16 6 -3 10 1 10 9 0 9 -4 16 -10 16 -5 0
-10 -4 -10 -9z"/>
<path d="M1740 1547 c0 -8 11 -19 25 -25 21 -10 25 -9 25 3 0 8 -7 15 -15 15
-8 0 -15 5 -15 10 0 6 -4 10 -10 10 -5 0 -10 -6 -10 -13z"/>
<path d="M1820 1500 c20 -13 40 -13 40 0 0 6 -12 10 -27 10 -22 0 -25 -2 -13
-10z"/>
<path d="M11636 3332 c-13 -21 -24 -96 -17 -115 7 -18 10 -13 24 28 10 27 17
56 17 66 0 20 -16 34 -24 21z"/>
<path d="M10555 3078 c4 -13 9 -36 12 -52 5 -24 3 -28 -11 -23 -9 4 -24 10
-33 14 -11 4 -5 -9 16 -34 25 -31 31 -46 26 -66 -6 -23 -2 -29 28 -47 20 -12
63 -58 96 -103 101 -139 217 -238 276 -236 27 0 28 1 8 9 -12 5 -24 17 -27 27
-3 10 -16 23 -28 28 -31 14 -34 33 -5 28 20 -4 26 0 31 21 7 29 -11 76 -31 76
-7 0 -23 12 -36 27 -12 15 -40 47 -62 72 -40 44 -135 200 -135 220 0 17 -23
61 -32 61 -4 0 -8 -9 -8 -20 0 -25 -18 -25 -50 0 -33 26 -44 25 -35 -2z"/>
<path d="M11611 3082 c-6 -11 -11 -28 -11 -37 0 -21 103 -69 130 -60 26 8 26
35 -1 35 -21 0 -79 29 -79 40 0 4 -6 15 -14 25 -13 18 -14 18 -25 -3z"/>
<path d="M11062 2568 c-15 -15 -16 -38 -2 -38 12 0 23 25 18 40 -2 7 -7 7 -16
-2z"/>
<path d="M10702 1360 c0 -14 2 -19 5 -12 2 6 2 18 0 25 -3 6 -5 1 -5 -13z"/>
<path d="M3526 3232 c-3 -5 -8 -28 -12 -50 -6 -37 -4 -42 12 -42 22 0 64 26
64 40 0 10 -44 60 -53 60 -3 0 -8 -4 -11 -8z"/>
<path d="M2652 3128 c0 -81 1 -84 41 -143 70 -103 108 -136 161 -142 38 -5 46
-3 46 11 0 9 -7 16 -15 16 -41 0 -95 41 -122 93 -34 66 -63 143 -70 184 -3 17
-13 39 -23 48 -16 15 -17 11 -18 -67z"/>
<path d="M2941 3181 c-16 -28 -13 -89 5 -175 16 -70 16 -77 0 -100 -20 -31
-20 -46 -2 -46 14 0 76 -88 76 -107 0 -6 16 -22 35 -37 24 -18 36 -38 41 -64
14 -76 30 -98 76 -110 24 -6 70 -13 103 -16 57 -6 63 -4 123 34 41 27 68 53
80 77 26 54 44 61 90 35 43 -24 52 -21 52 15 0 16 10 30 30 41 34 19 39 32 12
32 -10 0 -28 7 -41 16 -21 15 -23 21 -17 76 l7 59 -38 -24 c-57 -36 -122 -43
-172 -18 -22 12 -48 21 -59 21 -10 0 -42 12 -71 26 l-52 27 -42 -32 c-70 -53
-83 -57 -122 -38 -48 23 -69 58 -61 102 4 19 16 39 26 45 21 11 27 54 10 65
-5 3 -10 17 -10 31 0 14 -4 23 -10 19 -5 -3 -16 8 -25 24 -20 40 -32 46 -44
22z"/>
<path d="M3212 3173 c-6 -16 -12 -48 -14 -73 -4 -53 13 -61 64 -35 18 9 71 25
118 34 60 12 85 21 85 32 0 14 -28 16 -105 7 -19 -3 -37 -2 -40 1 -8 10 -85
61 -92 61 -3 0 -10 -12 -16 -27z"/>
<path d="M13140 3205 c-19 -50 19 -75 54 -36 17 18 17 20 -3 40 -27 27 -39 26
-51 -4z"/>
<path d="M12566 3192 c-23 -37 -12 -183 16 -219 6 -8 3 -28 -11 -57 -16 -38
-17 -47 -6 -53 16 -10 63 -78 76 -110 5 -13 20 -28 34 -35 17 -8 28 -24 36
-52 21 -83 33 -105 58 -115 28 -10 129 -24 173 -24 41 0 135 66 155 110 26 52
46 62 84 41 41 -24 59 -23 59 5 0 13 13 33 32 49 29 24 30 27 12 28 -40 0 -56
23 -56 78 0 29 -4 55 -9 58 -5 3 -24 -4 -43 -15 -39 -25 -123 -28 -164 -7 -15
7 -44 16 -64 19 -20 3 -51 16 -68 28 -30 23 -31 23 -63 5 -17 -11 -42 -28 -54
-39 -44 -39 -123 -14 -148 47 -15 35 -4 68 33 104 22 21 23 24 8 40 -9 11 -13
27 -9 40 3 13 1 22 -6 22 -7 0 -25 14 -40 31 -16 17 -31 26 -35 21z"/>
<path d="M12830 3174 c-6 -14 -10 -40 -10 -58 0 -17 -5 -37 -12 -44 -9 -9 -7
-13 5 -18 19 -7 22 -6 122 30 39 14 87 26 107 26 39 0 57 15 40 32 -7 7 -26 7
-60 -1 -44 -11 -53 -10 -90 9 -22 12 -46 28 -53 36 -18 22 -38 17 -49 -12z"/>
<path d="M12277 3176 c-3 -7 -1 -18 4 -23 5 -5 2 -20 -6 -37 -21 -39 -19 -47
15 -94 17 -23 30 -46 30 -51 0 -5 26 -37 58 -70 49 -52 63 -61 92 -61 36 0 69
14 54 22 -5 3 -22 8 -38 12 -48 12 -82 45 -111 109 -15 34 -36 80 -46 102 -9
22 -21 52 -24 68 -8 32 -21 43 -28 23z"/>
<path d="M9323 3450 c6 -45 -2 -55 -53 -65 -49 -9 -62 -10 -91 -2 -26 7 -26 6
-21 -38 4 -37 0 -52 -27 -93 -36 -56 -39 -78 -12 -87 27 -8 54 -70 48 -109 -3
-17 -9 -50 -13 -74 l-7 -43 36 6 c33 6 35 5 41 -22 4 -16 2 -42 -4 -57 -5 -15
-10 -31 -10 -36 0 -11 67 -22 125 -20 94 4 140 3 195 -4 50 -6 60 -4 110 24
30 17 67 36 82 42 15 7 29 21 32 33 3 11 21 36 40 54 l35 34 52 -21 c60 -26
79 -27 79 -8 0 16 -26 46 -40 46 -5 0 -14 9 -20 20 -9 17 -7 22 15 30 30 11
31 26 5 60 -17 22 -17 27 -4 42 10 11 17 42 19 91 l3 75 -31 5 c-18 2 -56 3
-85 1 -52 -4 -122 16 -122 34 0 4 -40 6 -88 4 -100 -5 -129 5 -220 77 -65 52
-76 52 -69 1z"/>
<path d="M5047 3137 c-13 -34 -8 -273 8 -347 13 -60 13 -76 2 -103 -22 -52
-40 -60 -127 -61 l-78 -1 -31 52 c-46 76 -55 77 -47 10 6 -55 5 -59 -26 -93
-27 -28 -42 -36 -81 -39 -35 -4 -49 -1 -53 9 -3 8 -23 27 -45 42 -21 14 -39
31 -39 37 0 5 -18 36 -40 68 -22 32 -40 65 -40 73 0 19 -27 39 -41 31 -18 -12
-40 -75 -34 -96 5 -14 0 -21 -19 -29 -35 -13 -33 -24 9 -57 20 -15 45 -43 57
-61 25 -41 64 -78 100 -98 40 -21 160 -39 263 -39 85 0 96 2 165 37 41 21 99
42 128 48 37 7 76 25 128 61 90 63 106 85 75 108 l-21 16 27 17 c16 9 32 15
38 15 5 -1 11 5 13 14 3 17 -13 22 -140 50 -90 19 -99 34 -123 207 -13 88 -24
140 -28 129z m-114 -604 c-7 -2 -21 -2 -30 0 -10 3 -4 5 12 5 17 0 24 -2 18
-5z"/>
<path d="M4404 2876 c-6 -17 2 -36 17 -36 12 0 12 37 -1 45 -6 3 -13 -1 -16
-9z"/>
<path d="M6657 1384 c-11 -11 -8 -62 4 -70 15 -9 30 16 27 45 -3 25 -19 37
-31 25z"/>
</g>
</svg>
