<?xml version="1.0" standalone="no"?>
<!DOCTYPE svg PUBLIC "-//W3C//DTD SVG 20010904//EN"
 "http://www.w3.org/TR/2001/REC-SVG-20010904/DTD/svg10.dtd">
<svg version="1.0" xmlns="http://www.w3.org/2000/svg"
 width="1004.000000pt" height="591.000000pt" viewBox="0 0 1004.000000 591.000000"
 preserveAspectRatio="xMidYMid meet">

<g transform="translate(0.000000,591.000000) scale(0.100000,-0.100000)"
fill="#000000" stroke="none">
<path d="M0 2955 l0 -2955 5015 0 5015 0 0 2955 0 2955 -5015 0 -5015 0 0
-2955z m1787 1050 c27 -18 29 -32 5 -63 l-18 -23 -17 40 c-12 26 -29 44 -52
55 -19 10 -35 18 -35 20 0 8 96 -16 117 -29z m613 -5 c33 -23 32 -27 -12 -86
l-23 -32 0 40 c0 33 -7 46 -33 69 -19 17 -44 29 -60 29 -18 0 -23 3 -14 9 20
12 109 -5 142 -29z m1321 -152 c41 -106 82 -201 92 -210 16 -17 14 -18 -50
-18 -51 1 -64 3 -50 11 20 12 21 28 5 64 -11 25 -13 25 -124 25 -102 0 -114
-2 -124 -19 -15 -29 -12 -59 8 -70 13 -8 6 -10 -32 -11 -47 0 -48 0 -27 18 18
15 161 326 161 351 0 9 49 50 61 51 3 0 39 -87 80 -192z m927 163 c42 -23 46
-38 16 -78 -41 -56 -42 -57 -37 -29 11 54 -39 116 -92 116 -9 0 -14 4 -11 9 6
10 96 -3 124 -18z m852 -163 c41 -106 83 -201 92 -210 17 -17 15 -18 -49 -18
-51 1 -64 3 -50 11 20 12 21 28 5 64 -11 25 -13 25 -124 25 -102 0 -114 -2
-124 -19 -15 -29 -12 -59 8 -70 13 -8 6 -10 -33 -11 -46 0 -48 1 -29 15 19 13
164 326 164 353 0 9 48 51 60 52 3 0 39 -87 80 -192z m511 155 c16 -10 29 -21
29 -25 0 -5 -12 -27 -27 -50 l-28 -42 -6 44 c-7 50 -45 90 -87 90 -19 0 -23 3
-14 9 18 11 96 -4 133 -26z m937 8 c43 -23 43 -35 7 -87 -33 -46 -35 -47 -29
-18 11 57 -33 114 -88 114 -16 0 -19 3 -10 9 15 9 91 -3 120 -18z m762 -176
c39 -99 79 -188 87 -197 15 -17 12 -18 -52 -18 -60 0 -66 2 -50 13 14 11 16
21 11 50 l-7 37 -118 0 -119 0 -11 -31 c-14 -39 -14 -35 5 -53 14 -15 12 -16
-25 -16 -39 0 -40 1 -23 18 16 16 162 340 162 359 0 5 12 16 27 25 21 12 30
14 35 5 3 -7 38 -93 78 -192z m418 169 l30 -19 -24 -40 c-15 -25 -24 -33 -24
-22 0 34 -31 79 -66 93 -19 8 -34 16 -34 18 0 10 92 -13 118 -30z m359 1 c28
-19 28 -19 1 -63 l-22 -36 -7 34 c-8 36 -49 80 -75 80 -8 0 -14 4 -14 9 0 12
89 -6 117 -24z m-6509 14 c-16 -9 -18 -29 -18 -194 0 -165 2 -185 18 -194 13
-8 2 -10 -43 -10 -33 0 -54 3 -47 6 17 7 17 374 0 391 -9 9 1 12 48 12 45 -1
55 -3 42 -11z m259 5 c-3 -3 -12 -4 -19 -1 -8 3 -5 6 6 6 11 1 17 -2 13 -5z
m356 -6 c3 -10 203 -253 243 -297 2 -2 4 57 4 132 0 124 -2 139 -20 157 l-20
20 46 0 c41 0 44 -1 30 -16 -18 -17 -19 -33 -17 -256 0 -82 -1 -148 -3 -148
-2 0 -71 80 -152 177 l-149 177 -3 -40 c-2 -21 -2 -92 0 -157 3 -104 5 -120
22 -133 18 -13 16 -14 -23 -14 -42 0 -42 0 -27 22 13 18 16 54 16 184 l0 163
-26 20 -27 21 51 0 c31 0 52 -5 55 -12z m570 2 c-23 -9 -23 -12 -23 -200 l0
-190 60 0 c73 0 110 17 146 68 14 20 23 28 20 17 -2 -11 -9 -38 -15 -60 l-10
-40 -152 3 c-139 3 -150 4 -130 18 20 15 21 22 21 194 0 160 -2 180 -17 189
-14 8 0 10 52 10 52 0 64 -3 48 -9z m913 -144 l129 -154 3 130 c2 105 0 135
-13 154 -15 24 -15 24 27 24 27 0 38 -3 30 -9 -24 -15 -32 -82 -29 -249 1 -89
1 -162 1 -162 -1 0 -69 80 -150 177 l-149 177 -3 -40 c-2 -21 -2 -92 0 -157 3
-104 5 -120 22 -133 18 -13 16 -14 -23 -14 -42 0 -42 0 -27 22 13 18 16 54 16
184 l0 163 -26 20 -27 21 45 0 45 0 129 -154z m427 147 c-7 -2 -19 -2 -25 0
-7 3 -2 5 12 5 14 0 19 -2 13 -5z m375 -4 c-16 -9 -18 -27 -18 -155 0 -161 9
-192 60 -219 41 -21 82 -19 121 8 49 33 61 78 57 218 -2 98 -6 120 -22 138
l-19 21 43 0 c40 0 42 -1 27 -17 -12 -14 -16 -49 -19 -160 -3 -154 -9 -170
-71 -217 -37 -27 -120 -28 -166 -1 -60 36 -71 71 -71 232 0 125 -2 143 -17
152 -14 8 -2 10 47 10 49 0 61 -2 48 -10z m975 4 c-7 -2 -19 -2 -25 0 -7 3 -2
5 12 5 14 0 19 -2 13 -5z m560 0 c3 -5 8 -24 12 -43 l8 -35 -42 38 c-39 35
-44 37 -111 37 l-70 0 0 -95 0 -95 65 0 c52 0 69 4 85 20 l20 20 0 -45 0 -45
-20 20 c-16 16 -33 20 -85 20 l-65 0 0 -95 0 -95 76 0 77 0 44 45 c40 40 44
42 39 19 -4 -15 -10 -40 -13 -56 -4 -20 -10 -27 -20 -24 -8 4 -81 6 -161 6
-135 0 -145 1 -124 16 21 15 22 20 22 194 0 160 -2 180 -17 189 -13 7 24 10
129 11 81 0 149 -3 151 -7z m390 0 c-7 -2 -19 -2 -25 0 -7 3 -2 5 12 5 14 0
19 -2 13 -5z m335 -4 c-16 -9 -18 -30 -18 -201 l0 -190 76 4 c75 3 76 4 116
47 38 40 40 41 34 16 -4 -15 -10 -41 -13 -57 -4 -20 -10 -27 -20 -24 -8 4 -76
6 -151 6 -98 1 -132 4 -119 11 15 9 17 29 17 192 0 129 -4 187 -12 195 -9 9 1
12 48 12 45 -1 55 -3 42 -11z m-5553 -34 c-28 -65 3 -100 118 -137 46 -14 76
-30 92 -50 43 -50 29 -129 -27 -159 -20 -11 -20 -10 -4 12 41 59 6 116 -90
144 -105 30 -144 67 -144 135 0 27 42 90 60 90 5 0 2 -16 -5 -35z m587 15
c-42 -26 -62 -74 -62 -147 1 -122 80 -213 186 -213 62 0 74 13 74 80 0 65 0
65 -80 73 -19 2 12 4 70 5 76 1 100 -1 88 -9 -14 -8 -18 -24 -18 -79 0 -55 4
-71 18 -79 13 -8 7 -10 -30 -11 -37 0 -48 4 -48 15 0 14 -3 14 -27 1 -98 -49
-227 -6 -278 93 -49 98 -8 227 90 276 44 22 56 18 17 -5z m2266 5 c-42 -23
-71 -95 -66 -164 8 -113 74 -188 175 -200 l58 -7 -41 -12 c-89 -26 -197 26
-239 114 -34 71 -13 187 41 235 23 20 75 48 89 48 6 0 -2 -6 -17 -14z m1332
-23 c-63 -63 -66 -171 -7 -258 42 -62 87 -86 154 -82 58 3 56 -9 -3 -23 -46
-10 -96 -3 -144 21 -137 70 -149 270 -22 351 61 39 67 36 22 -9z m955 5 c-74
-74 -68 -203 14 -290 53 -58 123 -72 199 -42 l37 15 -25 -19 c-91 -71 -265
-30 -315 75 -49 104 -17 216 80 275 44 28 47 23 10 -14z m1205 14 c-5 -11 -10
-35 -10 -55 0 -45 31 -69 119 -96 71 -21 106 -46 122 -88 12 -31 -2 -76 -33
-109 -28 -29 -44 -30 -24 -1 23 33 20 81 -6 105 -13 11 -55 31 -95 43 -93 29
-128 63 -128 127 0 37 5 49 28 69 34 29 41 30 27 5z m353 -9 c-19 -32 -12 -73
16 -101 10 -10 51 -28 91 -40 117 -36 155 -93 115 -171 -14 -28 -71 -67 -82
-57 -2 3 5 8 16 12 23 7 45 65 36 95 -9 28 -38 45 -119 71 -91 28 -126 61
-126 122 0 35 6 50 26 71 35 34 47 33 27 -2z m-3575 -203 c-14 -8 -18 -24 -18
-79 0 -55 4 -71 18 -79 13 -8 7 -10 -30 -11 -37 0 -48 4 -48 16 0 9 -5 12 -12
8 -6 -4 -5 2 3 14 10 14 13 36 9 74 l-5 53 -55 6 c-43 4 -32 6 50 7 76 1 100
-1 88 -9z m1348 -5 c-11 -10 -16 -34 -16 -74 0 -40 5 -64 16 -74 14 -15 11
-16 -29 -16 l-45 0 5 73 c6 85 0 94 -67 100 -25 2 -1 4 53 5 89 2 97 1 83 -14z
m-4460 -125 c9 -10 38 -26 63 -34 l46 -15 -55 6 c-51 6 -130 36 -130 51 0 3
10 22 22 41 l22 36 7 -32 c4 -18 15 -42 25 -53z m6344 2 c16 -16 46 -34 67
-40 37 -10 37 -10 -12 -5 -48 5 -135 37 -135 49 0 3 10 21 23 40 21 34 22 34
25 10 2 -14 16 -38 32 -54z m357 -3 c11 -10 37 -24 59 -32 21 -8 31 -15 22
-15 -35 -2 -119 21 -139 38 -21 17 -21 18 -4 52 l18 34 13 -30 c7 -17 21 -38
31 -47z m-3620 -219 c12 -11 19 -39 8 -39 -3 0 -14 9 -25 20 -23 23 -39 25
-65 6 -27 -20 -12 -43 37 -56 53 -15 68 -26 68 -53 0 -55 -88 -79 -132 -35
-16 16 -18 23 -8 26 7 3 17 -3 22 -12 11 -20 71 -21 88 -1 19 23 5 43 -42 55
-54 15 -68 26 -68 56 0 47 74 68 117 33z m661 -7 c26 -34 7 -45 -21 -12 -28
33 -77 23 -77 -15 0 -23 17 -35 49 -35 24 0 71 -37 71 -56 0 -49 -99 -74 -135
-34 -23 26 -11 39 14 16 28 -26 85 -18 89 11 3 23 1 25 -75 53 -76 28 -40 108
42 94 17 -3 36 -13 43 -22z m1427 13 c94 -45 60 -185 -45 -185 -104 0 -139
138 -46 184 39 20 50 20 91 1z m-4551 -11 c18 -17 20 -32 7 -53 -6 -10 -5 -22
5 -35 35 -50 0 -86 -83 -86 l-53 0 0 95 0 95 54 0 c36 0 60 -5 70 -16z m226 6
c0 -5 -22 -10 -50 -10 -49 0 -50 -1 -50 -30 0 -29 2 -30 45 -30 25 0 45 -4 45
-10 0 -5 -20 -10 -45 -10 -45 0 -45 0 -45 -35 l0 -35 50 0 c28 0 50 -4 50 -10
0 -6 -28 -10 -65 -10 l-65 0 0 95 0 95 65 0 c37 0 65 -4 65 -10z m100 -75 l0
-85 45 0 c25 0 45 -4 45 -10 0 -5 -24 -10 -54 -10 -53 0 -53 0 -59 34 -7 44 3
156 14 156 5 0 9 -38 9 -85z m283 -7 c20 -50 35 -93 32 -96 -3 -3 -16 7 -29
21 -35 38 -87 37 -114 0 -31 -43 -35 -22 -7 40 13 31 31 72 39 92 8 19 21 35
28 35 7 0 30 -41 51 -92z m177 17 c0 -62 -4 -79 -20 -95 -21 -21 -70 -28 -70
-10 0 6 9 10 19 10 33 0 51 38 51 107 0 35 4 63 10 63 6 0 10 -32 10 -75z
m211 -22 c27 -67 34 -93 24 -93 -7 0 -17 9 -20 20 -5 17 -15 20 -60 20 -45 0
-55 -3 -60 -20 -6 -20 -25 -28 -25 -11 0 5 16 48 36 96 25 59 41 85 51 83 8
-2 32 -45 54 -95z m237 63 c13 -25 12 -31 -8 -57 l-21 -30 21 -34 c18 -30 19
-35 6 -35 -9 0 -24 16 -33 35 -13 28 -23 35 -45 35 -25 0 -28 -3 -28 -35 0
-24 -5 -35 -15 -35 -12 0 -15 17 -15 95 l0 96 62 -3 c58 -3 64 -5 76 -32z
m316 18 c18 -17 20 -32 7 -53 -6 -10 -5 -22 5 -35 35 -50 0 -86 -83 -86 l-53
0 0 95 0 95 54 0 c36 0 60 -5 70 -16z m219 -75 c38 -92 41 -125 7 -79 -15 20
-26 24 -62 21 -30 -2 -48 -9 -60 -24 -31 -41 -29 -10 7 73 19 45 38 86 41 91
14 23 32 1 67 -82z m127 51 l0 -40 60 0 60 0 0 40 c0 22 5 40 10 40 6 0 10
-38 10 -95 0 -95 -16 -133 -22 -52 l-3 42 -55 0 -55 0 -3 -42 c-6 -81 -22 -43
-22 52 0 57 4 95 10 95 6 0 10 -18 10 -40z m331 -7 c50 -115 59 -143 46 -143
-7 0 -17 10 -22 23 -8 18 -18 22 -59 22 -41 1 -49 -3 -57 -22 -5 -13 -14 -23
-20 -23 -13 0 -12 3 34 112 18 43 38 78 45 78 7 0 22 -21 33 -47z m452 -41
c20 -48 37 -91 37 -95 0 -16 -18 -5 -28 18 -10 21 -18 25 -57 25 -39 0 -47 -4
-57 -25 -6 -14 -17 -25 -24 -25 -9 0 -3 23 17 73 17 39 35 82 40 95 16 40 34
23 72 -66z m237 -7 c0 -57 -4 -95 -10 -95 -6 0 -10 38 -10 95 0 57 4 95 10 95
6 0 10 -38 10 -95z m335 50 c14 -25 30 -43 35 -40 5 3 19 23 31 45 13 22 29
40 36 40 16 0 14 -4 -29 -67 -19 -29 -28 -54 -28 -82 0 -30 -4 -41 -15 -41
-11 0 -15 11 -15 40 0 30 -10 56 -35 95 -23 37 -30 55 -21 55 8 0 26 -20 41
-45z m304 -37 c18 -46 36 -89 38 -95 10 -24 -18 -13 -29 12 -9 21 -18 25 -54
25 -35 0 -46 -5 -62 -27 -31 -43 -35 -22 -7 40 13 31 31 72 39 92 8 19 21 35
28 35 7 0 28 -37 47 -82z m235 66 c22 -22 20 -70 -4 -87 -19 -13 -19 -14 6
-50 18 -27 21 -37 10 -37 -8 0 -23 16 -35 35 -16 28 -27 35 -51 35 -28 0 -30
-3 -30 -35 0 -19 -4 -35 -10 -35 -6 0 -10 38 -10 95 l0 95 54 0 c36 0 60 -5
70 -16z m215 -66 c18 -46 36 -89 38 -95 10 -24 -18 -13 -29 12 -9 21 -18 25
-54 25 -35 0 -46 -5 -62 -27 -31 -43 -35 -22 -7 40 13 31 31 72 39 92 8 19 21
35 28 35 7 0 28 -37 47 -82z m231 72 c0 -5 -13 -10 -30 -10 l-30 0 0 -85 c0
-50 -4 -85 -10 -85 -6 0 -10 35 -10 85 l0 85 -30 0 c-16 0 -30 5 -30 10 0 6
30 10 70 10 40 0 70 -4 70 -10z m526 -62 l59 -73 3 73 c4 107 22 88 22 -23 0
-53 -4 -95 -9 -95 -6 0 -36 34 -68 75 l-58 76 -3 -76 c-4 -109 -22 -93 -22 20
0 52 4 95 9 95 5 0 35 -33 67 -72z m194 -13 l0 -85 50 0 c28 0 50 -4 50 -10 0
-6 -27 -10 -60 -10 l-60 0 0 95 c0 57 4 95 10 95 6 0 10 -35 10 -85z m190 -10
c0 -57 -4 -95 -10 -95 -6 0 -10 38 -10 95 0 57 4 95 10 95 6 0 10 -38 10 -95z
m170 22 l55 -72 3 73 c4 107 22 88 22 -23 0 -52 -4 -95 -9 -95 -4 0 -35 35
-67 77 l-59 77 -3 -77 c-4 -111 -22 -96 -22 18 0 70 3 95 13 94 6 0 37 -32 67
-72z m300 63 c0 -5 -22 -10 -50 -10 -49 0 -50 -1 -50 -30 0 -29 2 -30 45 -30
25 0 45 -4 45 -10 0 -5 -20 -10 -45 -10 -45 0 -45 0 -45 -35 l0 -35 50 0 c28
0 50 -4 50 -10 0 -6 -28 -10 -65 -10 l-65 0 0 95 0 95 65 0 c37 0 65 -4 65
-10z m-6181 -760 c29 -15 37 -43 88 -305 11 -61 18 -147 19 -265 1 -96 2 -181
3 -187 1 -17 46 -16 60 1 6 7 27 74 45 147 19 74 42 151 50 171 9 20 25 94 36
164 26 160 34 178 82 182 54 5 68 -21 68 -128 0 -145 -20 -310 -51 -420 -37
-135 -55 -316 -39 -397 16 -80 48 -184 62 -201 22 -26 7 -252 -27 -407 -9 -38
-20 -117 -25 -175 -5 -58 -18 -195 -29 -305 -12 -116 -21 -270 -21 -367 l0
-168 -266 0 -265 0 7 22 c4 13 8 54 9 93 6 176 18 321 28 334 10 12 16 42 31
157 2 18 9 41 14 51 7 13 7 34 1 62 -5 23 -7 46 -4 51 3 5 -15 22 -40 38 -48
30 -68 58 -133 186 -25 50 -39 98 -53 180 -10 61 -26 135 -35 164 -9 29 -14
55 -12 57 2 2 13 2 25 -1 25 -7 38 -33 23 -48 -15 -15 -12 -26 9 -26 10 0 36
-14 57 -31 71 -56 125 -78 195 -78 48 1 66 -3 75 -16 7 -9 17 -14 22 -11 6 3
12 1 14 -6 6 -18 25 -1 32 28 9 33 63 113 82 121 7 2 28 -2 45 -11 40 -20 55
-20 39 -1 -7 8 -9 15 -4 15 5 0 2 5 -6 11 -11 8 -12 12 -2 16 18 7 15 21 -8
28 -11 3 -23 17 -26 31 -4 17 -13 24 -30 24 -19 0 -24 5 -24 27 0 24 -1 25
-17 10 -25 -22 -146 -32 -202 -17 -25 6 -57 25 -71 41 -30 31 -40 29 -40 -9 0
-23 -3 -24 -37 -17 -21 3 -42 12 -48 18 -17 20 -66 49 -73 42 -3 -3 -1 -14 5
-24 14 -22 8 -31 -23 -31 -33 0 -35 10 -13 59 10 24 19 49 19 57 0 30 24 63
64 84 22 13 44 28 48 34 13 19 8 99 -12 186 -23 96 -46 562 -31 603 13 33 36
49 67 45 52 -6 62 -36 79 -238 8 -102 19 -203 25 -225 5 -22 13 -86 16 -142 5
-78 10 -103 21 -103 26 0 45 68 39 139 -3 36 -10 176 -15 311 -6 135 -13 269
-17 299 -6 46 -4 56 11 68 22 15 59 17 84 3z m2555 -9 c9 -10 21 -45 26 -77
15 -91 12 -331 -6 -456 -18 -128 -14 -442 6 -462 16 -16 79 21 178 104 107 88
160 114 234 115 46 0 62 -4 79 -22 27 -26 20 -46 -23 -73 -56 -34 -299 -273
-320 -315 -12 -22 -46 -67 -77 -100 -31 -33 -83 -91 -116 -130 -33 -38 -87
-99 -121 -135 -87 -91 -87 -98 -59 -555 14 -232 27 -381 42 -497 l6 -48 -266
0 c-211 0 -266 3 -270 13 -11 30 -18 157 -21 422 -3 207 -8 303 -20 368 -13
66 -14 92 -6 108 9 17 8 23 -7 35 -16 12 -16 15 -3 24 10 6 11 10 3 10 -15 0
-17 36 -3 45 18 11 11 24 -15 31 -67 17 -121 258 -97 430 7 44 14 102 17 129
11 94 25 158 37 173 21 25 90 52 135 52 46 0 63 -17 63 -63 0 -29 30 -131 36
-124 3 3 -2 51 -10 106 -8 56 -13 107 -11 114 2 7 6 24 9 39 11 51 114 78 164
42 23 -16 26 -12 22 33 -2 34 18 63 57 79 43 19 83 11 124 -23 35 -30 48 -21
49 32 0 17 9 86 21 155 11 69 25 186 30 260 7 84 16 143 25 158 18 27 64 30
88 3z m1306 -337 c21 -5 38 -17 51 -38 24 -39 24 -51 -2 -77 -22 -22 -55 -18
-76 10 -10 14 -13 14 -32 -3 -15 -14 -40 -20 -87 -22 -75 -4 -84 -8 -84 -35 0
-10 -4 -19 -10 -19 -5 0 -10 -6 -10 -13 0 -14 -58 -52 -67 -43 -3 3 -13 -9
-23 -27 -17 -34 -9 -60 12 -39 16 16 43 15 57 -2 15 -17 -12 -92 -42 -119 -11
-10 -17 -20 -14 -24 3 -3 29 20 58 51 46 50 55 56 91 56 l41 0 -7 -38 c-3 -21
-15 -67 -27 -103 -14 -42 -22 -93 -23 -149 l-1 -85 36 -19 c35 -19 37 -19 84
-2 26 11 72 41 102 67 52 48 76 59 88 39 3 -5 11 -10 16 -10 5 0 3 10 -4 23
-21 32 -6 71 51 142 42 52 52 60 82 60 43 0 49 -23 26 -92 -9 -26 -16 -71 -16
-100 0 -68 -7 -81 -90 -169 -37 -39 -81 -92 -99 -117 -17 -26 -36 -47 -40 -47
-9 0 -35 -40 -112 -170 -24 -41 -64 -102 -89 -135 -93 -122 -115 -218 -99
-439 8 -123 48 -481 66 -589 l6 -37 -264 2 -264 3 -6 270 c-7 278 -14 353 -43
441 -16 48 -16 54 -1 90 14 33 17 84 19 339 1 165 8 347 15 405 11 94 17 114
59 190 58 107 60 112 117 247 45 108 48 113 117 168 39 32 95 72 124 91 88 57
223 86 314 68z m1937 -15 c15 -6 38 -20 51 -32 l22 -21 30 32 c25 27 36 32 76
32 40 0 51 -5 78 -33 30 -33 32 -34 98 -29 67 4 68 4 104 -32 l37 -37 -7 -102
c-4 -56 -11 -160 -16 -232 -6 -92 -16 -157 -35 -220 -15 -49 -37 -136 -50
-191 -13 -56 -28 -119 -34 -140 -49 -171 -66 -1056 -25 -1261 l7 -33 -281 0
c-258 0 -282 1 -290 18 -14 27 -2 663 14 739 2 13 0 23 -7 23 -7 0 -9 13 -5
38 3 20 6 46 5 57 0 11 0 27 0 35 9 144 9 260 1 265 -20 13 -9 35 23 43 l32 9
-38 8 c-31 6 -41 14 -57 48 -11 22 -20 47 -20 54 0 7 -11 18 -25 23 -15 6 -27
20 -30 37 -3 15 -13 51 -23 78 -13 39 -17 84 -16 210 0 218 11 239 132 275 47
15 48 16 27 36 -20 20 -10 37 32 57 26 11 41 13 54 6 21 -11 51 -63 42 -72 -6
-7 36 -149 67 -227 10 -25 21 -69 25 -97 4 -29 10 -53 14 -53 4 0 16 17 27 38
21 41 30 53 69 95 17 19 34 28 53 27 15 -1 43 -1 62 0 l35 1 -35 12 c-20 7
-41 25 -52 43 -18 30 -18 34 -2 68 15 29 15 42 6 73 -6 21 -18 47 -26 58 -14
19 -15 19 -26 -10 -7 -16 -13 -73 -13 -125 l-2 -95 -32 -3 c-38 -4 -82 24 -83
51 0 11 10 27 22 36 19 16 20 22 10 49 -6 18 -22 42 -36 55 -13 12 -45 62 -70
112 -45 87 -46 89 -52 57 -4 -18 -10 -32 -14 -32 -9 0 2 53 22 115 10 29 22
45 48 57 41 21 41 21 77 7z m-835 -69 c25 -7 53 -29 87 -66 27 -31 65 -66 84
-79 34 -24 57 -78 57 -137 0 -13 16 -57 35 -97 22 -46 33 -81 29 -93 -3 -11
-30 -49 -60 -83 -29 -35 -70 -90 -90 -122 -21 -32 -40 -60 -44 -63 -4 -3 -35
-60 -69 -127 -35 -67 -85 -149 -113 -183 -69 -87 -107 -166 -130 -278 -19 -90
-19 -109 -9 -262 13 -191 26 -330 47 -486 8 -61 14 -120 14 -132 0 -22 0 -22
-246 -22 l-246 0 2 243 c1 133 0 251 -3 262 -2 11 -8 61 -12 110 -3 50 -13
100 -20 111 -26 40 -29 116 -7 160 10 21 22 67 25 102 3 37 12 71 21 81 18 19
17 40 -7 231 -10 83 -12 145 -6 220 5 58 6 141 3 185 l-5 80 60 80 c33 44 86
130 117 190 75 145 96 173 137 178 70 9 314 6 349 -3z m-3745 -82 c29 -28 34
-30 64 -19 43 15 65 14 105 -5 53 -25 76 -72 76 -153 0 -38 -3 -98 -7 -133 -7
-61 -5 -66 40 -154 69 -135 67 -152 -23 -289 -40 -60 -100 -166 -135 -233
l-62 -124 2 -187 c2 -188 28 -701 39 -798 l7 -53 -281 0 -280 0 -5 22 c-3 13
-3 72 -1 131 10 315 9 644 -4 684 -10 32 -10 48 -2 64 9 16 8 23 -4 32 -8 7
-23 39 -31 72 -9 33 -28 103 -43 155 -23 87 -26 112 -26 295 -1 155 3 216 16
270 9 39 19 111 22 161 7 144 32 184 115 184 37 0 42 3 55 34 25 60 96 86 142
51 25 -19 48 -19 65 1 35 42 107 38 156 -8z m5813 2 c28 -30 54 -38 65 -20 9
14 60 12 100 -4 67 -29 88 -102 74 -260 l-9 -90 44 -87 c24 -48 47 -106 51
-129 6 -38 3 -46 -43 -113 -78 -112 -202 -346 -219 -412 -13 -49 -14 -92 -9
-235 9 -233 34 -659 42 -737 l7 -63 -282 0 -281 0 -2 43 c-1 23 -2 60 -3 82
-1 22 3 166 8 321 10 248 9 289 -5 355 -11 46 -13 78 -7 84 12 12 12 58 0 50
-13 -7 -18 3 -35 66 -8 30 -23 88 -34 129 -49 183 -54 428 -13 620 12 52 21
122 21 155 0 121 29 165 107 165 38 0 45 3 54 28 25 66 96 94 145 57 26 -20
48 -19 69 5 14 15 31 20 73 20 47 0 57 -4 82 -30z m-7397 -715 c-2 -5 -9 -10
-15 -10 -7 0 -16 -4 -20 -10 -4 -5 -8 0 -8 13 0 19 5 23 23 20 12 -2 21 -7 20
-13z m157 -4 c14 -27 13 -31 -9 -31 -23 0 -35 15 -27 35 8 21 23 19 36 -4z
m300 -1 c9 -16 6 -22 -18 -34 -26 -13 -31 -13 -51 0 -28 20 -27 30 7 42 40 15
50 14 62 -8z m-121 -41 c24 -9 31 -16 29 -33 -2 -17 -11 -22 -45 -24 -70 -5
-110 30 -60 54 30 16 39 16 76 3z"/>
<path d="M3542 3867 c-29 -67 -52 -125 -52 -129 0 -5 47 -8 105 -8 58 0 105 2
105 5 0 8 -93 240 -99 247 -3 4 -30 -48 -59 -115z"/>
<path d="M5319 3860 l-56 -130 108 0 c60 0 109 2 109 5 0 9 -93 240 -99 247
-4 4 -32 -51 -62 -122z"/>
<path d="M7571 3969 c-5 -13 -30 -71 -55 -128 -25 -57 -45 -106 -42 -108 2 -2
51 -2 109 -1 l105 3 -50 125 c-27 69 -52 127 -54 129 -2 2 -8 -7 -13 -20z"/>
<path d="M6694 3430 c-28 -11 -54 -48 -54 -78 0 -33 43 -72 80 -72 38 0 80 39
80 74 0 29 -36 72 -65 79 -11 3 -30 2 -41 -3z"/>
<path d="M2120 3400 c0 -30 2 -31 38 -28 32 3 37 6 37 28 0 22 -5 25 -37 28
-36 3 -38 2 -38 -28z"/>
<path d="M2120 3315 c0 -34 1 -35 40 -35 44 0 65 22 49 52 -7 13 -22 18 -49
18 -39 0 -40 -1 -40 -35z"/>
<path d="M2748 3371 c-9 -22 -13 -42 -10 -45 7 -7 72 -8 72 -1 0 13 -33 85
-40 85 -4 0 -14 -18 -22 -39z"/>
<path d="M3136 3374 c-9 -20 -15 -39 -12 -41 7 -7 55 -7 62 0 5 5 -22 77 -29
77 -2 0 -11 -16 -21 -36z"/>
<path d="M3340 3390 c0 -36 2 -40 26 -40 38 0 64 18 64 44 0 26 -17 36 -61 36
-27 0 -29 -2 -29 -40z"/>
<path d="M3670 3400 c0 -30 2 -31 38 -28 32 3 37 6 37 28 0 22 -5 25 -37 28
-36 3 -38 2 -38 -28z"/>
<path d="M3670 3316 c0 -34 2 -36 33 -36 43 0 59 12 55 41 -2 20 -9 24 -45 27
l-43 3 0 -35z"/>
<path d="M3908 3371 c-9 -22 -13 -42 -10 -45 7 -7 72 -8 72 -1 0 13 -33 85
-40 85 -4 0 -14 -18 -22 -39z"/>
<path d="M4386 3370 c-9 -22 -16 -43 -16 -45 0 -7 65 -6 72 1 7 6 -24 84 -33
84 -4 0 -14 -18 -23 -40z"/>
<path d="M4827 3386 c-26 -55 -23 -66 18 -66 40 0 41 7 17 63 l-17 39 -18 -36z"/>
<path d="M5702 3383 c-5 -16 -13 -36 -17 -45 -6 -15 -1 -18 34 -18 23 0 41 2
41 5 0 14 -33 85 -40 85 -4 0 -13 -12 -18 -27z"/>
<path d="M5902 3393 c3 -33 7 -38 30 -41 35 -4 68 14 68 36 0 28 -21 42 -63
42 -38 0 -38 0 -35 -37z"/>
<path d="M6152 3383 c-5 -16 -13 -36 -17 -45 -6 -15 -1 -18 34 -18 23 0 41 2
41 5 0 14 -33 85 -40 85 -4 0 -13 -12 -18 -27z"/>
<path d="M1680 995 c0 -5 5 -17 10 -25 5 -8 10 -10 10 -5 0 6 -5 17 -10 25 -5
8 -10 11 -10 5z"/>
<path d="M1720 994 c0 -14 41 -67 47 -60 3 2 0 11 -6 18 -7 7 -18 22 -26 33
-8 11 -15 15 -15 9z"/>
<path d="M1810 941 c0 -5 7 -11 15 -15 8 -3 15 -1 15 3 0 5 -7 11 -15 15 -8 3
-15 1 -15 -3z"/>
<path d="M1858 913 c7 -3 16 -2 19 1 4 3 -2 6 -13 5 -11 0 -14 -3 -6 -6z"/>
<path d="M3801 1820 c-1 -52 4 -112 10 -133 7 -28 7 -44 -3 -65 -12 -24 -20
-27 -65 -30 -50 -3 -52 -2 -77 35 l-26 38 0 -41 c0 -48 -23 -74 -65 -74 -33 0
-91 56 -119 114 -9 19 -21 38 -26 41 -11 7 -35 -34 -32 -56 2 -9 -5 -19 -14
-23 -14 -5 -11 -12 20 -42 20 -19 36 -39 36 -44 0 -20 71 -49 147 -61 l82 -12
75 31 c42 18 83 32 92 32 17 0 63 29 101 63 18 16 20 23 11 34 -12 14 -5 23
27 37 18 8 -16 24 -65 30 -61 8 -76 27 -85 104 -13 115 -23 124 -24 22z"/>
<path d="M3421 1734 c0 -11 3 -14 6 -6 3 7 2 16 -1 19 -3 4 -6 -2 -5 -13z"/>
<path d="M4774 836 c-4 -10 -2 -22 4 -28 8 -8 13 -7 18 6 4 10 2 22 -4 28 -8
8 -13 7 -18 -6z"/>
<path d="M7776 1988 c-6 -30 -2 -47 9 -36 11 10 17 68 8 68 -6 0 -13 -14 -17
-32z"/>
<path d="M7130 1872 c0 -6 4 -22 10 -37 9 -23 8 -25 -9 -15 -32 16 -36 12 -12
-13 12 -14 19 -30 15 -40 -4 -10 3 -20 19 -29 14 -7 46 -41 71 -75 41 -57 116
-123 138 -123 18 0 7 28 -14 35 l-23 8 23 4 c12 2 22 10 22 18 0 21 -11 45
-21 45 -24 0 -103 106 -136 183 -15 35 -33 50 -33 27 0 -6 -11 -3 -25 6 -14 9
-25 12 -25 6z"/>
<path d="M7767 1863 c-14 -13 -6 -28 20 -40 33 -16 60 -17 68 -3 3 6 -3 10
-14 10 -12 0 -30 9 -41 20 -22 22 -24 23 -33 13z"/>
<path d="M7435 1550 c-3 -5 -1 -10 4 -10 6 0 11 5 11 10 0 6 -2 10 -4 10 -3 0
-8 -4 -11 -10z"/>
<path d="M7221 824 c0 -11 3 -14 6 -6 3 7 2 16 -1 19 -3 4 -6 -2 -5 -13z"/>
<path d="M6389 2103 c-1 -5 -2 -17 -3 -27 -1 -21 -49 -40 -78 -30 -14 4 -18
-1 -18 -22 0 -14 -9 -42 -21 -60 l-21 -34 22 -18 c24 -19 28 -48 16 -100 -7
-31 -6 -33 16 -30 21 3 23 -1 22 -34 -1 -43 -12 -40 131 -43 87 -3 106 0 145
20 25 13 52 35 59 49 18 32 33 38 71 24 40 -14 51 -1 21 23 -23 19 -23 20 -5
33 15 12 16 16 5 29 -7 9 -9 22 -5 28 4 7 9 34 11 61 l4 48 -65 0 c-36 0 -68
5 -71 10 -3 6 -34 10 -67 10 -53 0 -66 4 -109 35 -51 37 -58 40 -60 28z"/>
<path d="M2887 1953 c-4 -3 -7 -17 -7 -31 0 -18 4 -23 16 -18 9 3 18 6 20 6 2
0 4 6 4 14 0 17 -24 38 -33 29z"/>
<path d="M2359 1915 c1 -17 0 -39 0 -51 -1 -25 53 -107 84 -129 23 -16 67 -21
67 -7 0 4 -16 14 -35 21 -38 13 -60 48 -85 131 -17 58 -31 73 -31 35z"/>
<path d="M2697 1923 c-19 -67 -18 -73 6 -73 13 0 28 5 33 10 6 6 34 13 62 17
36 4 52 10 52 20 0 12 -9 13 -40 8 -31 -5 -47 -2 -74 14 -32 20 -35 21 -39 4z"/>
<path d="M2531 1883 c1 -27 4 -59 8 -73 4 -14 3 -35 -3 -48 -7 -16 -7 -26 1
-30 5 -4 22 -26 37 -49 14 -24 30 -43 36 -43 5 0 15 -21 22 -47 l14 -48 62 -8
c59 -8 66 -7 103 17 22 15 44 38 50 53 9 25 17 26 62 8 12 -5 17 -2 17 8 0 9
9 22 20 30 20 14 19 14 -6 26 -23 10 -25 15 -20 47 l7 35 -30 -15 c-16 -9 -40
-16 -53 -16 -24 0 -98 23 -134 41 -18 9 -29 6 -63 -16 -39 -26 -42 -27 -66
-11 -36 24 -40 41 -17 78 21 34 19 44 -18 90 -23 29 -30 22 -29 -29z"/>
<path d="M8695 1941 c-8 -26 1 -42 20 -34 19 7 19 27 1 42 -11 10 -16 8 -21
-8z"/>
<path d="M8346 1932 c-9 -9 -7 -74 4 -114 8 -27 8 -44 0 -58 -9 -16 -6 -25 15
-47 14 -15 25 -33 25 -40 0 -7 9 -17 20 -23 10 -6 24 -28 30 -49 13 -50 23
-57 93 -66 53 -6 61 -4 93 20 20 15 40 38 47 52 7 17 16 23 29 19 58 -19 58
-19 52 -3 -3 9 3 21 16 30 l22 15 -21 7 c-20 6 -25 20 -21 59 1 15 -2 17 -22
11 -63 -19 -119 -12 -190 26 -15 8 -28 5 -61 -14 -49 -29 -80 -23 -99 18 -10
22 -8 30 10 55 13 17 18 31 12 35 -6 4 -8 11 -4 16 7 11 -42 60 -50 51z"/>
<path d="M8505 1913 c-4 -16 -8 -36 -10 -45 -4 -22 20 -23 68 -3 20 8 50 15
67 15 19 0 30 5 30 14 0 11 -10 13 -41 9 -31 -5 -47 -1 -69 16 -37 27 -38 27
-45 -6z"/>
<path d="M8174 1914 c4 -9 1 -23 -5 -30 -8 -10 -5 -25 17 -61 38 -66 77 -103
108 -103 35 0 32 12 -7 30 -24 11 -40 32 -64 80 -18 36 -32 73 -32 83 -1 9 -6
17 -12 17 -6 0 -8 -7 -5 -16z"/>
</g>
</svg>
