<?xml version="1.0" standalone="no"?>
<!DOCTYPE svg PUBLIC "-//W3C//DTD SVG 20010904//EN"
 "http://www.w3.org/TR/2001/REC-SVG-20010904/DTD/svg10.dtd">
<svg version="1.0" xmlns="http://www.w3.org/2000/svg"
 width="1080.000000pt" height="1920.000000pt" viewBox="0 0 1080.000000 1920.000000"
 preserveAspectRatio="xMidYMid meet">

<g transform="translate(0.000000,1920.000000) scale(0.100000,-0.100000)"
fill="#000000" stroke="none">
<path d="M0 9600 l0 -9600 475 0 476 0 -5 90 c-3 50 -1 88 3 85 12 -7 40 71
34 95 -3 11 2 38 11 61 11 26 13 46 8 51 -6 6 -4 22 6 41 18 37 18 117 0 128
-9 6 -8 12 5 27 16 18 16 20 -20 38 -80 40 -92 55 -173 209 -57 109 -74 168
-101 350 -6 44 -18 93 -25 108 -8 15 -12 33 -8 39 4 7 3 8 -4 4 -12 -7 -17 25
-6 37 9 9 56 -12 70 -31 10 -14 10 -20 -3 -34 -18 -20 -9 -38 19 -38 11 0 38
-15 59 -34 22 -18 66 -47 97 -64 51 -27 66 -30 140 -29 74 1 84 -2 98 -21 8
-12 19 -20 24 -17 5 3 11 1 15 -5 12 -19 24 -10 36 28 12 42 76 140 101 155
11 7 28 4 62 -13 26 -12 50 -19 54 -16 3 4 2 10 -3 14 -6 4 -15 16 -21 27 -9
16 -8 22 5 32 14 10 12 13 -11 24 -15 6 -33 25 -40 41 -9 19 -20 28 -35 28
-18 0 -23 6 -23 24 0 29 -19 44 -30 26 -10 -16 -100 -33 -165 -31 -82 3 -127
20 -168 63 -38 40 -43 39 -49 -12 -2 -18 -9 -25 -23 -23 -45 3 -78 15 -94 32
-9 11 -28 26 -43 36 -36 22 -48 2 -17 -31 l22 -24 -29 -1 c-16 0 -37 -2 -46
-4 -24 -4 -23 27 1 79 10 23 22 58 25 78 7 37 62 98 90 98 23 0 43 34 49 82 5
33 -1 86 -19 170 -14 68 -29 182 -33 253 -12 199 -13 502 -2 524 15 28 62 44
94 32 56 -22 64 -54 86 -366 6 -77 18 -175 26 -218 9 -43 20 -127 23 -185 6
-85 10 -107 22 -107 17 0 41 45 50 96 4 20 1 80 -5 135 -7 54 -13 188 -14 296
-1 109 -8 253 -16 320 -15 137 -9 167 35 178 40 10 88 -7 103 -38 17 -32 40
-131 62 -257 9 -49 21 -115 27 -145 6 -30 12 -154 12 -275 1 -121 5 -226 9
-232 12 -19 51 -16 69 5 18 19 43 89 53 147 11 63 31 133 64 233 17 52 40 153
51 229 11 74 28 152 37 172 16 32 23 36 60 39 39 3 45 0 64 -30 19 -31 20 -43
15 -188 -9 -229 -20 -323 -55 -445 -39 -140 -61 -277 -61 -383 0 -97 37 -265
78 -356 19 -43 27 -76 26 -111 -2 -87 -32 -326 -53 -428 -12 -54 -25 -153 -31
-220 -5 -67 -14 -158 -20 -202 -5 -44 -14 -138 -20 -210 -5 -72 -13 -154 -16
-182 l-7 -53 270 0 270 0 6 172 c11 272 8 400 -8 480 -13 59 -13 77 -3 96 11
21 10 26 -9 40 -13 11 -27 41 -36 82 -9 36 -29 119 -46 185 -16 66 -34 147
-40 181 -23 128 -7 433 29 554 6 19 13 82 16 140 6 148 19 201 55 236 25 24
38 28 87 29 56 0 57 1 68 34 6 19 25 47 43 63 39 35 87 37 140 6 l38 -22 34
26 c19 15 46 29 60 33 40 10 109 -13 141 -47 l29 -31 54 13 c73 17 121 3 168
-49 45 -50 54 -109 39 -263 -6 -61 -8 -118 -5 -127 2 -9 27 -61 54 -117 35
-70 52 -118 56 -157 l6 -57 -75 -112 c-93 -140 -233 -392 -250 -450 -16 -56
-16 -228 1 -620 l14 -318 337 0 337 0 7 70 c14 136 -2 393 -35 578 -10 57 -11
79 -1 104 10 28 9 34 -8 50 -25 23 -26 38 -2 38 16 1 16 1 0 11 -22 12 -23 32
-3 49 22 19 18 27 -18 39 -38 13 -52 33 -79 115 -51 156 -59 272 -33 486 30
242 36 271 66 304 31 36 106 66 165 66 49 0 60 -11 69 -65 14 -88 38 -176 46
-168 7 7 1 75 -21 199 -24 141 36 210 163 190 23 -4 50 -15 61 -24 19 -17 19
-16 13 31 -6 44 -4 50 29 87 33 36 41 40 86 40 53 0 102 -20 111 -45 4 -8 15
-15 26 -15 22 0 24 10 36 125 4 33 17 123 30 200 13 77 26 198 30 270 4 71 13
144 20 162 25 59 98 54 131 -8 34 -67 39 -430 8 -654 -13 -92 -15 -168 -12
-327 5 -199 11 -238 38 -238 16 0 165 104 214 149 100 93 183 131 284 131 59
0 86 -11 102 -40 15 -28 4 -44 -53 -83 -87 -60 -362 -335 -390 -392 -14 -27
-42 -66 -62 -85 -21 -19 -81 -87 -134 -150 -53 -63 -133 -154 -177 -201 -80
-84 -82 -87 -94 -156 -13 -81 -11 -155 15 -555 l19 -288 471 0 472 0 6 78 c5
74 -1 154 -22 271 -6 30 -9 57 -6 60 2 4 -7 40 -21 81 -24 73 -26 129 -4 155
7 9 14 98 21 265 1 19 -2 112 -6 205 -6 133 -4 197 8 295 9 69 19 157 22 195
6 61 14 84 70 186 36 65 78 152 95 195 17 44 50 118 72 166 38 79 47 91 122
150 161 128 203 151 333 184 84 21 104 23 162 14 53 -8 71 -16 94 -40 35 -39
35 -79 2 -110 -22 -21 -29 -22 -46 -12 -11 7 -24 10 -29 7 -6 -4 -10 3 -10 15
0 18 -4 20 -22 14 -13 -3 -31 -13 -41 -22 -12 -11 -42 -17 -94 -19 -79 -3
-103 -13 -103 -44 0 -11 -4 -19 -10 -19 -5 0 -10 -8 -10 -17 0 -18 -59 -63
-82 -63 -7 0 -21 -14 -31 -32 -21 -36 -10 -56 20 -37 30 18 73 4 73 -24 0 -39
-37 -122 -59 -132 -11 -5 -21 -15 -21 -22 0 -19 28 -16 34 5 4 9 27 39 51 66
40 43 52 50 95 56 l50 6 0 -37 c0 -20 -14 -81 -30 -135 -20 -63 -33 -132 -37
-189 l-6 -91 32 -27 c62 -51 142 -30 251 67 65 58 75 61 124 40 19 -7 19 -6
-2 23 l-22 31 32 61 c41 75 102 149 134 161 15 6 34 6 49 0 31 -12 33 -45 5
-118 -13 -34 -20 -76 -20 -123 0 -39 -5 -80 -12 -92 -6 -12 -49 -62 -96 -112
-46 -49 -101 -116 -123 -147 -21 -31 -48 -59 -59 -63 -11 -3 -20 -11 -20 -17
0 -5 -16 -35 -35 -66 -20 -32 -59 -95 -86 -142 -28 -46 -77 -119 -108 -161
-43 -57 -65 -98 -87 -165 -27 -84 -29 -98 -28 -244 1 -131 19 -349 40 -492 l6
-38 413 0 413 0 5 53 c10 120 -20 445 -46 493 -8 16 -21 48 -28 71 -11 40 -10
47 19 111 24 52 32 83 32 127 0 43 6 69 24 99 18 32 23 53 21 97 -2 31 -7 65
-13 75 -5 11 -9 30 -8 44 1 14 -3 44 -10 67 -8 27 -10 93 -6 200 7 218 6 293
-3 325 -12 43 -1 68 77 174 39 54 107 167 150 249 43 83 89 164 102 180 l24
30 203 3 c286 5 277 7 374 -93 44 -45 94 -92 111 -104 32 -21 49 -70 69 -192
3 -20 21 -67 40 -105 23 -45 34 -77 30 -92 -3 -13 -39 -63 -80 -112 -40 -49
-92 -120 -114 -159 -23 -38 -45 -71 -50 -73 -5 -1 -39 -62 -75 -134 -69 -138
-118 -216 -171 -274 -75 -82 -139 -264 -152 -435 -5 -60 31 -577 42 -613 4 -9
109 -12 485 -12 l481 0 0 43 c0 89 9 223 18 248 5 14 5 32 1 40 -5 7 -6 18 -2
23 9 15 9 296 -1 283 -4 -7 -5 4 -1 23 4 19 6 46 5 60 -2 14 -3 32 -2 40 1 8
3 62 6 120 2 58 4 105 5 105 1 0 4 16 5 35 2 22 -4 47 -16 67 -20 32 -20 32 0
42 11 6 29 11 40 11 36 0 23 17 -20 26 -25 5 -46 17 -53 29 -6 11 -17 31 -25
45 -9 14 -14 35 -12 47 2 16 -4 23 -27 28 -24 5 -31 14 -41 48 -7 23 -19 65
-28 92 -21 63 -30 341 -15 439 15 97 40 125 136 156 76 25 90 35 61 46 -8 4
-15 17 -15 30 0 18 10 28 46 43 41 19 48 19 74 6 30 -15 41 -40 45 -95 1 -19
11 -60 23 -90 35 -96 73 -214 82 -255 5 -22 13 -58 17 -79 l8 -40 20 30 c11
16 25 41 32 56 11 26 20 37 69 92 21 23 30 26 94 26 71 0 87 12 30 23 -23 5
-35 17 -51 51 l-22 44 22 36 c21 33 22 40 10 85 -15 58 -43 101 -58 86 -18
-18 -33 -143 -21 -183 20 -74 8 -105 -45 -116 -24 -5 -39 -1 -68 21 -43 33
-46 58 -11 85 22 18 25 26 19 57 -3 23 -18 47 -39 66 -18 17 -57 76 -86 133
-56 109 -70 127 -70 90 0 -27 -15 -54 -22 -42 -9 15 30 157 50 184 40 54 127
58 181 9 18 -16 36 -29 40 -29 4 0 24 16 44 35 32 31 42 35 87 35 45 0 55 -4
93 -39 l43 -39 80 5 81 6 41 -38 c53 -48 58 -75 43 -245 -7 -74 -16 -193 -21
-265 -6 -93 -16 -154 -34 -215 -27 -88 -32 -108 -92 -355 -51 -216 -73 -517
-74 -1012 l0 -293 285 0 285 0 0 39 c0 21 5 132 11 246 10 184 9 218 -7 308
-18 109 -19 117 -8 159 5 21 1 32 -14 45 -12 10 -27 46 -36 83 -9 36 -25 99
-37 140 -68 252 -75 538 -19 763 12 47 20 113 20 162 0 184 32 243 139 252 58
5 61 7 71 39 15 45 63 84 103 84 18 0 49 -9 70 -20 48 -26 59 -25 86 6 21 24
27 26 92 22 66 -3 72 -6 104 -41 38 -41 42 -43 69 -22 48 36 149 6 193 -57
l28 -41 0 -186 0 -186 33 -57 c39 -68 73 -162 74 -203 0 -21 -21 -62 -70 -135
-38 -58 -90 -143 -115 -190 -25 -47 -61 -113 -81 -148 -76 -134 -84 -214 -62
-602 9 -157 18 -323 19 -370 l2 -85 443 -3 442 -2 0 9600 0 9600 -5400 0
-5400 0 0 -9600z m3698 7330 c70 -176 110 -265 125 -275 20 -14 14 -15 -73
-14 -67 0 -88 3 -72 9 24 10 30 49 12 94 l-10 26 -150 0 -151 0 -15 -36 c-19
-46 -15 -65 16 -81 23 -12 19 -13 -39 -13 -62 0 -63 0 -42 18 19 15 120 230
197 418 20 49 38 78 59 92 16 11 32 21 35 21 3 1 52 -116 108 -259z m2327 16
c94 -240 118 -292 137 -299 7 -3 -30 -5 -82 -6 -64 0 -88 3 -73 9 30 12 37 42
19 85 l-15 36 -152 -3 -152 -3 -13 -38 c-15 -44 -10 -65 20 -77 15 -6 3 -9
-42 -9 l-63 -1 25 23 c17 14 61 104 125 252 84 195 104 233 132 253 26 18 34
20 40 9 4 -7 47 -111 94 -231z m670 199 c25 -14 45 -31 45 -36 0 -8 -79 -129
-84 -129 -1 0 -1 25 -1 54 0 47 -4 59 -30 86 -37 39 -89 55 -151 45 -60 -9
-126 -69 -143 -130 -37 -134 24 -289 135 -344 60 -31 138 -34 177 -8 25 16 27
23 27 86 0 79 -7 88 -70 94 -25 2 4 4 63 5 l108 2 -15 -22 c-11 -15 -16 -45
-16 -93 0 -71 10 -97 40 -108 8 -3 -16 -6 -54 -6 -64 -1 -68 0 -63 19 6 25 6
25 -36 0 -104 -61 -270 -16 -342 92 -39 59 -53 120 -42 193 4 33 9 68 10 77 1
9 3 15 5 13 2 -2 18 15 36 37 83 109 279 145 401 73z m1210 19 c11 -4 35 -18
53 -31 l32 -24 -30 -42 c-69 -95 -65 -93 -62 -39 5 84 -53 142 -143 142 -51 0
-95 -21 -132 -63 -103 -118 -45 -351 105 -423 53 -26 130 -22 192 8 44 22 48
23 33 6 -39 -44 -94 -63 -178 -63 -126 0 -213 52 -264 158 -47 97 -18 246 61
312 87 73 227 98 333 59z m1020 -237 c71 -181 104 -253 122 -267 l26 -20 -99
1 c-70 0 -92 3 -76 9 31 13 37 34 23 81 l-12 39 -153 0 -153 0 -11 -25 c-19
-42 -15 -81 11 -93 18 -9 11 -11 -43 -11 -61 -1 -63 0 -42 15 12 8 33 36 46
62 35 71 176 399 176 411 0 14 73 62 81 53 3 -4 50 -118 104 -255z m-7789 229
c28 -13 54 -28 57 -33 3 -5 -8 -31 -26 -58 l-31 -50 -6 35 c-14 77 -50 109
-138 120 l-57 7 75 2 c60 1 85 -4 126 -23z m803 -2 c29 -15 55 -33 58 -40 3
-9 -72 -134 -81 -134 -1 0 -1 24 -1 54 0 44 -5 60 -25 81 -70 77 -186 73 -257
-8 -99 -113 -54 -333 85 -414 57 -34 142 -38 185 -10 25 16 27 23 27 86 0 79
-7 88 -70 94 -25 2 4 4 63 5 l108 2 -15 -22 c-11 -15 -16 -45 -16 -93 0 -71
10 -97 40 -108 8 -3 -16 -6 -54 -6 -64 -1 -68 0 -63 19 6 25 6 25 -37 -1 -54
-31 -139 -36 -206 -10 -62 23 -105 58 -145 120 -37 56 -47 168 -20 238 24 62
89 126 156 151 83 32 199 30 268 -4z m2943 10 c25 -8 55 -26 68 -39 l22 -23
-45 -62 -45 -62 4 39 c14 109 -105 183 -221 138 -82 -31 -121 -110 -113 -230
4 -57 12 -85 35 -126 66 -117 202 -171 289 -114 21 14 24 23 24 84 0 79 -7 88
-70 94 -25 2 4 4 63 5 100 2 107 1 92 -14 -12 -13 -15 -34 -13 -102 3 -81 5
-87 28 -99 23 -11 18 -13 -42 -13 -61 0 -68 2 -68 20 0 19 0 19 -34 -1 -107
-63 -283 -11 -350 103 -93 159 -25 341 151 404 52 18 169 17 225 -2z m2352 -4
c3 -8 8 -34 11 -58 l7 -43 -45 48 -46 48 -100 3 -101 4 0 -127 0 -128 87 6
c82 5 89 7 115 36 l28 31 0 -71 0 -71 -29 31 c-28 30 -32 31 -115 31 l-86 0 0
-126 0 -126 98 4 c111 4 133 15 189 87 27 36 33 40 29 21 -4 -14 -12 -47 -19
-75 -7 -28 -17 -50 -24 -49 -7 1 -101 2 -209 3 l-197 1 27 21 26 20 0 235 c0
214 -2 235 -17 242 -18 7 155 17 295 17 56 0 73 -3 76 -15z m2238 -13 l47 -28
-32 -52 -32 -52 -5 36 c-12 71 -55 108 -139 120 -52 7 -49 7 29 6 73 -2 92 -6
132 -30z m420 22 c21 -5 50 -20 64 -32 l26 -23 -30 -47 -30 -47 -6 34 c-13 69
-73 116 -149 116 -78 0 -116 -51 -96 -126 13 -45 48 -70 133 -95 98 -29 143
-54 166 -92 40 -66 15 -155 -55 -194 -22 -13 -47 -23 -55 -22 -8 0 -1 6 17 14
40 17 53 42 53 98 0 38 -5 49 -30 71 -17 14 -50 30 -73 36 -134 34 -189 70
-211 134 -24 70 9 141 79 172 36 16 146 18 197 3z m-8979 -19 c-28 -25 -36
-54 -29 -95 9 -47 54 -81 139 -106 98 -29 151 -61 171 -103 22 -46 20 -81 -5
-126 -22 -39 -90 -85 -112 -77 -7 3 -5 6 5 6 29 2 68 59 68 100 0 62 -27 86
-138 121 -53 16 -112 42 -131 57 -35 27 -61 76 -61 114 0 36 32 90 64 110 40
25 55 24 29 -1z m494 7 c-16 -11 -17 -35 -15 -252 l3 -239 25 -13 c22 -11 14
-13 -65 -12 -64 0 -83 3 -67 9 22 9 22 10 22 253 0 176 -3 246 -12 255 -9 9 3
12 57 12 57 0 66 -2 52 -13z m963 -187 c91 -109 169 -199 173 -199 5 -1 7 77
5 172 -2 145 -6 177 -21 200 l-17 27 40 0 c39 0 40 -1 28 -22 -9 -16 -14 -95
-18 -270 l-5 -247 -195 232 -195 232 -3 -165 c-3 -191 2 -244 29 -271 19 -19
18 -19 -37 -19 l-56 0 23 19 c24 19 24 22 27 236 l3 217 -27 29 -28 29 55 0
54 -1 165 -199z m576 184 c-14 -13 -16 -51 -16 -260 l0 -244 68 0 c114 0 150
17 214 100 l27 35 -19 -74 c-10 -40 -20 -74 -22 -74 -2 -1 -93 0 -203 3 -125
3 -191 8 -177 13 13 5 27 20 33 34 5 13 9 118 9 231 0 172 -3 211 -16 230
l-15 22 66 0 c60 0 65 -1 51 -16z m1079 -12 c10 -15 85 -105 165 -200 l145
-174 3 154 c3 168 -1 210 -24 233 -14 13 -11 15 32 15 42 0 45 -2 33 -17 -11
-12 -15 -76 -19 -272 l-5 -256 -184 220 c-101 121 -190 227 -198 235 -11 12
-13 -18 -13 -188 0 -202 0 -203 25 -227 l24 -25 -62 1 c-34 1 -54 3 -44 6 31
8 37 49 37 263 l0 209 -27 26 -28 25 60 0 c54 -1 62 -4 80 -28z m1176 14 c-9
-10 -11 -70 -9 -210 3 -178 5 -197 24 -222 56 -76 136 -92 211 -42 65 43 75
82 71 280 -3 146 -5 168 -22 187 l-19 21 47 0 c46 0 46 0 32 -22 -10 -17 -15
-69 -18 -193 -4 -145 -8 -177 -25 -217 -69 -154 -327 -135 -372 27 -6 22 -11
117 -11 212 0 153 -2 173 -17 182 -14 8 -1 10 51 11 58 0 67 -2 57 -14z m2977
3 c-16 -9 -18 -32 -18 -259 l0 -250 73 0 c91 0 147 26 196 90 l34 45 -8 -35
c-14 -65 -30 -111 -37 -111 -5 1 -94 1 -199 1 l-192 0 27 21 26 20 0 234 c0
212 -2 235 -17 244 -14 8 1 10 57 10 56 0 71 -2 58 -10z m1047 -14 c-29 -28
-33 -80 -10 -124 13 -27 85 -71 113 -71 31 0 128 -42 154 -67 60 -58 58 -145
-6 -201 -36 -31 -73 -48 -83 -38 -4 3 0 6 9 6 22 0 57 42 64 78 8 39 -10 86
-40 105 -12 8 -60 26 -108 41 -91 27 -139 59 -163 107 -31 59 -10 134 48 169
43 27 51 25 22 -5z m4 -449 c30 -30 48 -39 136 -60 11 -3 -12 -4 -51 -2 -72 3
-184 43 -184 65 0 6 12 31 28 56 l27 45 6 -35 c4 -21 20 -50 38 -69z m-8321 1
c23 -26 48 -38 107 -54 l50 -13 -70 4 c-44 2 -87 11 -115 24 -77 35 -77 34
-45 88 l28 48 14 -39 c7 -21 21 -47 31 -58z m8780 0 c23 -26 49 -39 107 -53
l50 -12 -51 -1 c-63 -1 -146 23 -179 52 l-25 22 27 42 28 42 13 -36 c7 -20 20
-45 30 -56z m-4737 -293 c20 -18 26 -44 9 -44 -5 0 -19 9 -30 20 -24 24 -72
26 -94 4 -30 -30 -14 -51 53 -69 65 -17 91 -39 91 -77 0 -45 -31 -68 -93 -68
-55 0 -97 24 -97 55 0 22 16 18 44 -10 29 -29 62 -32 94 -9 42 29 24 68 -39
80 -53 10 -88 32 -95 58 -7 30 10 64 39 76 31 14 95 5 118 -16z m860 0 c20
-18 26 -44 9 -44 -5 0 -19 9 -30 20 -11 11 -33 20 -49 20 -28 0 -61 -22 -61
-40 0 -13 30 -40 43 -40 27 0 87 -22 102 -36 21 -22 19 -70 -5 -94 -28 -28
-117 -28 -148 0 -22 21 -30 50 -12 50 5 0 20 -11 34 -25 29 -29 62 -32 94 -9
42 29 24 68 -39 80 -53 10 -88 32 -95 58 -7 30 10 64 39 76 31 14 95 5 118
-16z m1874 12 c45 -19 75 -69 75 -125 0 -37 -6 -49 -39 -82 -34 -35 -44 -39
-87 -39 -118 0 -182 116 -112 205 40 51 102 66 163 41z m-5965 -16 c24 -24 25
-48 6 -76 -13 -18 -13 -22 5 -37 19 -17 25 -62 11 -83 -15 -23 -53 -34 -116
-34 l-66 0 0 125 0 125 70 0 c57 0 74 -4 90 -20z m300 10 c0 -13 -36 -21 -90
-18 l-45 3 -3 -42 -3 -43 60 0 c77 0 80 -18 4 -22 l-58 -3 -3 -42 -3 -43 70 0
c56 0 71 -3 71 -15 0 -12 -16 -15 -85 -15 l-85 0 0 125 0 125 85 0 c49 0 85
-4 85 -10z m130 -100 l0 -110 60 0 c47 0 60 -3 60 -15 0 -12 -15 -15 -75 -15
l-75 0 0 125 c0 104 2 125 15 125 12 0 15 -19 15 -110z m365 -2 c26 -62 50
-119 52 -125 3 -7 -2 -13 -11 -13 -10 0 -22 13 -27 30 -11 29 -13 30 -75 30
-60 0 -64 -1 -79 -30 -9 -16 -23 -30 -31 -30 -9 0 -14 4 -12 8 58 148 105 242
119 242 11 0 30 -34 64 -112z m235 18 c0 -52 -3 -102 -6 -111 -14 -36 -114
-62 -114 -30 0 10 10 15 27 15 51 0 63 23 63 127 0 76 3 93 15 93 12 0 15 -17
15 -94z m276 -34 c45 -106 50 -122 34 -122 -11 0 -22 11 -29 30 -10 29 -12 30
-74 30 -62 0 -65 -1 -77 -30 -7 -16 -19 -30 -26 -30 -20 0 -18 5 22 100 20 47
42 100 50 118 24 58 43 39 100 -96z m302 108 c31 -29 30 -84 -2 -113 l-25 -23
30 -47 c26 -42 27 -47 11 -47 -12 0 -31 19 -50 51 -29 46 -35 50 -64 47 -32
-3 -33 -5 -36 -50 -2 -34 -7 -48 -18 -48 -11 0 -14 23 -14 125 l0 125 73 0
c60 0 77 -4 95 -20z m420 4 c26 -18 30 -65 7 -84 -13 -11 -12 -14 7 -30 26
-21 29 -74 4 -98 -12 -12 -38 -18 -96 -20 l-80 -4 0 126 0 126 68 0 c45 0 75
-5 90 -16z m286 -89 c57 -133 61 -145 43 -145 -8 0 -20 14 -27 30 -12 29 -15
30 -77 30 -63 0 -65 -1 -76 -30 -7 -18 -19 -30 -29 -30 -15 0 -12 11 18 83 20
45 43 101 52 125 26 68 46 55 96 -63z m176 50 l0 -55 75 0 75 0 0 55 c0 42 3
55 15 55 13 0 15 -21 15 -125 0 -104 -2 -125 -15 -125 -12 0 -15 13 -15 55 l0
55 -75 0 -75 0 0 -55 c0 -42 -3 -55 -15 -55 -13 0 -15 21 -15 125 0 104 2 125
15 125 12 0 15 -13 15 -55z m442 -32 c20 -49 43 -105 52 -125 14 -33 14 -38 1
-38 -8 0 -21 14 -30 30 -15 29 -19 30 -79 30 -62 0 -64 -1 -75 -30 -5 -16 -17
-30 -25 -30 -9 0 -16 2 -16 4 0 3 23 59 51 125 37 88 56 121 68 121 12 0 28
-26 53 -87z m583 -25 c26 -62 50 -119 52 -125 3 -7 -2 -13 -11 -13 -10 0 -22
13 -27 30 -11 29 -13 30 -75 30 -60 0 -64 -1 -79 -30 -9 -16 -22 -30 -30 -30
-17 0 -20 -10 52 163 25 59 42 87 54 87 11 0 31 -34 64 -112z m315 -13 c0
-104 -2 -125 -15 -125 -13 0 -15 21 -15 125 0 104 2 125 15 125 13 0 15 -21
15 -125z m435 65 c20 -33 38 -60 40 -60 2 0 20 27 41 60 23 38 44 60 55 60 15
0 10 -14 -31 -78 -42 -66 -50 -87 -50 -125 0 -35 -4 -47 -15 -47 -11 0 -15 12
-15 48 0 39 -8 59 -50 125 -41 65 -46 77 -30 77 12 0 31 -21 55 -60z m398 -47
c64 -150 62 -143 43 -143 -10 0 -22 13 -27 30 -11 29 -13 30 -78 30 -65 0 -67
-1 -78 -30 -6 -17 -19 -30 -28 -30 -9 0 -15 4 -13 8 58 148 105 242 119 242
11 0 30 -33 62 -107z m312 82 c32 -32 32 -69 -1 -102 l-27 -27 27 -48 c24 -43
25 -48 9 -48 -11 0 -28 19 -45 50 -25 45 -31 50 -63 50 l-35 0 0 -50 c0 -38
-4 -50 -15 -50 -13 0 -15 21 -15 125 l0 125 70 0 c62 0 74 -3 95 -25z m267
-62 c20 -49 43 -105 52 -125 14 -33 14 -38 1 -38 -8 0 -21 14 -30 30 -15 29
-19 30 -79 30 -62 0 -64 -1 -75 -30 -5 -16 -17 -30 -25 -30 -9 0 -16 2 -16 4
0 3 23 59 51 125 37 88 56 121 68 121 12 0 28 -26 53 -87z m318 78 c0 -6 -17
-11 -37 -13 l-38 -3 -3 -112 c-2 -91 -5 -113 -17 -113 -12 0 -15 21 -15 115
l0 115 -40 0 c-22 0 -40 5 -40 10 0 6 38 10 95 10 53 0 95 -4 95 -9z m682 -85
c40 -52 76 -95 80 -95 4 -1 7 34 7 77 -1 108 -1 112 16 112 13 0 15 -21 15
-125 0 -103 -3 -125 -15 -125 -8 0 -49 44 -92 98 l-78 97 -3 -97 c-2 -78 -6
-98 -17 -98 -12 0 -15 22 -15 125 0 102 3 125 14 125 8 0 48 -42 88 -94z m258
-16 l0 -110 65 0 c51 0 65 -3 65 -15 0 -12 -16 -15 -80 -15 l-80 0 0 125 c0
104 2 125 15 125 12 0 15 -19 15 -110z m250 -15 c0 -104 -2 -125 -15 -125 -13
0 -15 21 -15 125 0 104 2 125 15 125 13 0 15 -21 15 -125z m220 28 l75 -96 3
96 c2 77 6 97 17 97 12 0 15 -22 15 -125 0 -95 -3 -125 -13 -125 -7 0 -46 43
-87 96 l-75 96 -3 -96 c-2 -76 -6 -96 -17 -96 -12 0 -15 22 -15 125 0 95 3
125 13 125 7 0 46 -44 87 -97z m390 87 c0 -6 -28 -10 -65 -10 l-65 0 0 -45 0
-45 60 0 c33 0 60 -4 60 -10 0 -6 -27 -10 -60 -10 l-60 0 0 -45 0 -45 70 0
c56 0 70 -3 70 -15 0 -12 -16 -15 -85 -15 l-85 0 0 125 0 125 80 0 c47 0 80
-4 80 -10z m-6075 -2290 c3 -5 1 -10 -4 -10 -6 0 -11 5 -11 10 0 6 2 10 4 10
3 0 8 -4 11 -10z m289 -56 c3 -8 2 -12 -4 -9 -6 3 -10 10 -10 16 0 14 7 11 14
-7z m-774 -134 c0 -9 5 -21 12 -28 9 -9 9 -12 0 -12 -12 0 -22 20 -36 70 -7
24 -6 24 8 6 9 -11 16 -27 16 -36z m35 20 c3 -5 1 -10 -4 -10 -6 0 -11 5 -11
10 0 6 2 10 4 10 3 0 8 -4 11 -10z m279 -76 c3 -8 2 -12 -4 -9 -6 3 -10 10
-10 16 0 14 7 11 14 -7z m126 -5 c0 -6 -4 -7 -10 -4 -5 3 -10 11 -10 16 0 6 5
7 10 4 6 -3 10 -11 10 -16z m-206 -5 c3 -8 2 -12 -4 -9 -6 3 -10 10 -10 16 0
14 7 11 14 -7z m-665 -208 c-3 -3 -11 5 -18 17 -13 21 -12 21 5 5 10 -10 16
-20 13 -22z m-869 -96 c0 -5 -2 -10 -4 -10 -3 0 -8 5 -11 10 -3 6 -1 10 4 10
6 0 11 -4 11 -10z m908 -45 c-3 -3 -9 2 -12 12 -6 14 -5 15 5 6 7 -7 10 -15 7
-18z m1 -69 c-3 -3 -11 5 -18 17 -13 21 -12 21 5 5 10 -10 16 -20 13 -22z
m-531 -1 c-3 -3 -9 2 -12 12 -6 14 -5 15 5 6 7 -7 10 -15 7 -18z m-118 -56 c0
-6 -4 -7 -10 -4 -5 3 -10 11 -10 16 0 6 5 7 10 4 6 -3 10 -11 10 -16z m238
-24 c-3 -3 -9 2 -12 12 -6 14 -5 15 5 6 7 -7 10 -15 7 -18z m-13 -35 c3 -5 1
-10 -4 -10 -6 0 -11 5 -11 10 0 6 2 10 4 10 3 0 8 -4 11 -10z m-151 -146 c3
-8 2 -12 -4 -9 -6 3 -10 10 -10 16 0 14 7 11 14 -7z m374 -110 c-4 -3 -12 5
-18 18 -12 22 -12 22 6 6 10 -10 15 -20 12 -24z m-454 -10 c3 -8 2 -12 -4 -9
-6 3 -10 10 -10 16 0 14 7 11 14 -7z m-430 -50 c3 -8 2 -12 -4 -9 -6 3 -10 10
-10 16 0 14 7 11 14 -7z m384 -19 c-3 -3 -9 2 -12 12 -6 14 -5 15 5 6 7 -7 10
-15 7 -18z m962 -25 c0 -5 -2 -10 -4 -10 -3 0 -8 5 -11 10 -3 6 -1 10 4 10 6
0 11 -4 11 -10z m-1042 -45 c-3 -3 -9 2 -12 12 -6 14 -5 15 5 6 7 -7 10 -15 7
-18z m-613 -35 c3 -5 1 -10 -4 -10 -6 0 -11 5 -11 10 0 6 2 10 4 10 3 0 8 -4
11 -10z m813 -25 c-3 -3 -9 2 -12 12 -6 14 -5 15 5 6 7 -7 10 -15 7 -18z m623
-12 c13 -16 12 -17 -3 -4 -17 13 -22 21 -14 21 2 0 10 -8 17 -17z m-1321 -43
c6 -11 8 -20 6 -20 -3 0 -10 9 -16 20 -6 11 -8 20 -6 20 3 0 10 -9 16 -20z
m701 -57 c13 -16 12 -17 -3 -4 -17 13 -22 21 -14 21 2 0 10 -8 17 -17z m-581
-23 c6 -11 8 -20 6 -20 -3 0 -10 9 -16 20 -6 11 -8 20 -6 20 3 0 10 -9 16 -20z
m1110 -140 c6 -11 9 -20 7 -20 -2 0 -12 9 -22 20 -10 11 -13 20 -7 20 6 0 16
-9 22 -20z m-530 -21 c0 -6 -4 -7 -10 -4 -5 3 -10 11 -10 16 0 6 5 7 10 4 6
-3 10 -11 10 -16z m-1122 -304 c-3 -3 -9 2 -12 12 -6 14 -5 15 5 6 7 -7 10
-15 7 -18z m493 -472 c13 -16 12 -17 -3 -4 -17 13 -22 21 -14 21 2 0 10 -8 17
-17z m-214 -10374 c26 -10 27 -11 9 -21 -14 -8 -21 -7 -27 3 -7 11 -9 10 -9
-3 0 -10 -4 -18 -10 -18 -5 0 -10 11 -10 25 0 28 6 30 47 14z m203 -18 c14
-28 13 -31 -14 -31 -28 0 -40 14 -32 35 8 21 33 18 46 -4z m370 0 c8 -16 6
-23 -12 -35 -32 -23 -75 -20 -89 5 -12 23 -5 34 26 42 42 10 65 6 75 -12z
m-140 -54 c27 -13 38 -43 22 -59 -6 -6 -33 -10 -62 -10 -40 0 -57 5 -76 23
-29 27 -31 39 -5 39 10 0 24 7 32 16 13 16 41 13 89 -9z m-196 -3 c3 -8 2 -12
-4 -9 -6 3 -10 10 -10 16 0 14 7 11 14 -7z"/>
<path d="M3521 17099 c-5 -13 -37 -87 -70 -163 -34 -77 -61 -143 -61 -148 0
-4 63 -8 140 -8 77 0 140 3 140 8 0 12 -122 316 -131 326 -5 5 -12 -1 -18 -15z"/>
<path d="M5796 16966 c-36 -85 -69 -162 -72 -170 -5 -14 11 -16 135 -16 92 0
141 4 141 11 0 13 -120 311 -130 322 -4 5 -37 -61 -74 -147z"/>
<path d="M8685 16959 c-39 -89 -71 -165 -73 -170 -2 -5 62 -9 143 -9 114 0
146 3 142 13 -3 6 -33 83 -68 170 -34 86 -65 157 -68 157 -4 0 -38 -73 -76
-161z"/>
<path d="M7573 16380 c-54 -33 -62 -108 -17 -154 29 -28 58 -35 101 -24 84 22
99 144 22 184 -38 19 -68 18 -106 -6z"/>
<path d="M1597 16393 c-4 -3 -7 -24 -7 -45 l0 -38 44 0 c69 0 99 42 54 74 -23
16 -79 22 -91 9z"/>
<path d="M1590 16245 l0 -45 53 0 c58 0 77 12 77 47 0 29 -27 43 -84 43 l-46
0 0 -45z"/>
<path d="M2421 16314 c-11 -31 -21 -58 -21 -60 0 -2 23 -4 50 -4 28 0 50 4 50
9 0 16 -43 111 -50 111 -4 0 -17 -25 -29 -56z"/>
<path d="M2932 16328 c-12 -29 -22 -59 -22 -66 0 -13 86 -18 93 -4 2 4 -8 33
-22 66 l-26 58 -23 -54z"/>
<path d="M3195 16387 c-4 -8 -5 -32 -3 -53 3 -37 5 -39 41 -42 68 -6 115 52
72 88 -24 20 -104 26 -110 7z"/>
<path d="M3624 16386 c-3 -8 -4 -27 -2 -43 3 -24 8 -28 40 -31 67 -6 101 34
62 72 -20 20 -93 21 -100 2z"/>
<path d="M3627 16283 c-4 -3 -7 -24 -7 -45 l0 -38 53 0 c57 0 77 12 77 45 0
12 -5 26 -12 33 -13 13 -100 17 -111 5z"/>
<path d="M3948 16324 c-14 -32 -24 -62 -21 -66 2 -5 25 -8 50 -8 43 0 45 1 39
24 -3 13 -14 43 -24 66 l-18 43 -26 -59z"/>
<path d="M4572 16322 c-12 -32 -22 -61 -22 -65 0 -4 23 -7 51 -7 47 0 50 2 44
21 -8 25 -45 109 -48 109 -1 0 -12 -26 -25 -58z"/>
<path d="M5141 16314 c-11 -31 -21 -58 -21 -60 0 -2 23 -4 50 -4 28 0 50 4 50
9 0 16 -43 111 -50 111 -4 0 -17 -25 -29 -56z"/>
<path d="M6298 16327 c-34 -83 -36 -77 21 -77 28 0 51 3 51 7 0 14 -44 113
-49 113 -3 0 -14 -19 -23 -43z"/>
<path d="M6560 16346 l0 -56 45 0 c55 0 90 28 79 63 -10 33 -16 37 -72 44
l-52 6 0 -57z"/>
<path d="M6882 16322 c-12 -32 -22 -61 -22 -65 0 -4 23 -7 51 -7 47 0 50 2 44
21 -8 25 -45 109 -48 109 -1 0 -12 -26 -25 -58z"/>
<path d="M6997 2214 c-3 -4 -4 -19 0 -34 6 -33 -15 -43 -82 -42 -39 0 -40 0
-40 -37 -1 -22 -10 -50 -24 -70 l-23 -32 21 -21 c32 -29 42 -61 30 -100 -16
-57 -12 -71 16 -64 20 5 26 2 31 -18 3 -13 1 -33 -5 -44 -17 -32 -1 -36 149
-38 129 -2 137 -1 185 24 28 15 52 31 54 36 2 5 18 25 35 43 l31 34 37 -15
c21 -9 42 -16 48 -16 20 0 10 28 -17 45 l-27 18 22 15 c20 13 20 16 7 42 -8
15 -10 31 -6 36 5 5 11 35 14 67 6 64 19 57 -99 60 -28 1 -59 8 -68 16 -11 10
-37 14 -79 12 -68 -2 -90 6 -154 57 -44 34 -46 35 -56 26z"/>
<path d="M8717 2103 c-10 -18 -17 -82 -9 -87 13 -8 36 74 24 86 -5 5 -12 6
-15 1z"/>
<path d="M2687 2023 c-4 -3 -7 -19 -7 -35 0 -33 19 -37 44 -10 15 18 15 20 -2
35 -20 19 -26 20 -35 10z"/>
<path d="M9836 2004 c-10 -37 8 -52 34 -29 19 17 19 19 4 37 -23 24 -31 23
-38 -8z"/>
<path d="M9605 1973 c-4 -21 -9 -45 -11 -55 -8 -27 10 -29 69 -8 30 11 73 22
96 26 39 6 51 17 32 28 -4 3 -22 1 -40 -4 -35 -10 -87 7 -111 34 -20 25 -29
19 -35 -21z"/>
<path d="M2043 1972 c4 -17 2 -34 -4 -37 -14 -9 -2 -42 34 -95 50 -73 82 -100
122 -100 19 0 35 2 35 5 0 2 -20 13 -45 24 -38 17 -48 28 -71 78 -38 81 -43
95 -46 122 -2 14 -9 27 -17 29 -11 4 -13 -2 -8 -26z"/>
<path d="M2257 1993 c-10 -10 -8 -92 4 -142 8 -35 7 -48 -6 -67 -14 -21 -13
-24 4 -33 10 -6 28 -30 40 -53 11 -24 29 -48 40 -55 11 -7 26 -37 35 -66 17
-60 18 -60 118 -72 52 -7 60 -5 101 24 25 17 54 46 65 66 24 39 30 41 58 20
27 -20 44 -18 44 5 0 11 9 25 20 32 23 15 26 28 6 28 -30 0 -46 29 -39 73 l6
41 -31 -22 c-33 -24 -103 -32 -124 -15 -7 6 -29 14 -48 18 -19 4 -47 14 -62
23 -25 14 -28 14 -69 -16 -52 -39 -59 -39 -98 -6 -37 30 -39 51 -9 89 17 22
19 31 10 46 -7 10 -12 26 -12 34 0 9 -4 13 -10 10 -5 -3 -10 0 -10 8 0 18 -24
39 -33 30z"/>
<path d="M2457 1993 c-3 -5 -8 -27 -12 -49 -8 -51 3 -60 47 -40 18 8 60 20 92
25 67 12 74 17 59 32 -7 7 -22 9 -40 4 -39 -11 -63 -7 -95 16 -29 20 -44 24
-51 12z"/>
<path d="M9407 1993 c-11 -10 -8 -76 5 -132 8 -38 9 -57 0 -76 -10 -21 -8 -28
12 -50 13 -14 29 -39 36 -55 7 -16 21 -32 31 -35 10 -4 22 -18 25 -33 10 -49
26 -83 43 -91 9 -5 46 -11 82 -15 62 -6 68 -5 107 24 23 16 48 43 57 59 20 41
30 44 64 26 38 -19 41 -19 41 5 0 11 9 25 20 32 26 17 25 25 -5 32 -22 6 -25
12 -25 51 0 48 -5 53 -36 30 -22 -16 -110 -20 -119 -5 -3 6 -16 10 -28 10 -12
0 -39 9 -60 20 -40 21 -58 18 -99 -18 -27 -23 -69 -18 -95 12 -28 33 -29 56
-3 89 25 32 18 71 -17 105 -27 25 -27 25 -36 15z"/>
<path d="M9195 1971 c3 -11 1 -28 -6 -39 -10 -16 -5 -29 36 -90 26 -40 57 -79
68 -87 24 -17 87 -20 87 -5 0 6 -7 10 -16 10 -31 0 -73 34 -93 74 -11 23 -30
67 -42 99 -13 31 -27 57 -32 57 -4 0 -6 -9 -2 -19z"/>
<path d="M3817 1911 c-4 -35 -2 -116 5 -178 11 -110 10 -115 -9 -135 -16 -15
-35 -21 -79 -22 l-58 -1 -25 43 c-14 23 -29 42 -32 42 -4 0 -4 -19 -2 -42 4
-37 1 -47 -21 -67 -67 -63 -136 -17 -221 143 -5 11 -15 21 -21 23 -12 4 -39
-45 -35 -65 1 -8 -6 -20 -15 -27 -16 -12 -12 -19 50 -88 42 -48 77 -78 94 -81
171 -35 218 -33 313 13 36 17 74 31 83 31 27 0 91 36 132 76 35 32 37 37 22
48 -20 15 -6 36 25 36 44 0 5 26 -62 41 -40 9 -80 24 -89 33 -11 11 -22 55
-32 129 l-16 112 -7 -64z"/>
<path d="M7913 1913 c2 -10 8 -27 13 -37 6 -17 4 -18 -20 -12 l-28 7 24 -33
c14 -18 23 -41 21 -50 -3 -12 5 -22 21 -29 14 -7 36 -28 50 -49 61 -92 173
-200 209 -200 15 0 15 3 5 20 -7 11 -18 20 -24 20 -7 0 -14 6 -17 14 -4 9 0
12 12 9 13 -3 20 2 24 18 7 26 -8 59 -27 59 -8 0 -21 11 -30 25 -9 13 -25 33
-37 43 -24 23 -99 148 -99 166 0 7 -7 21 -15 32 -13 17 -14 17 -15 2 0 -22
-23 -23 -40 -3 -17 20 -33 19 -27 -2z"/>
<path d="M8697 1913 c-18 -18 -3 -39 39 -57 42 -17 47 -17 62 -2 15 15 14 16
-11 16 -17 0 -37 10 -51 25 -25 27 -29 29 -39 18z"/>
<path d="M3340 1750 c0 -11 5 -20 10 -20 6 0 10 9 10 20 0 11 -4 20 -10 20 -5
0 -10 -9 -10 -20z"/>
<path d="M8285 1529 c-10 -15 3 -25 16 -12 7 7 7 13 1 17 -6 3 -14 1 -17 -5z"/>
<path d="M1260 834 c0 -5 7 -19 15 -30 8 -10 15 -14 15 -8 0 5 -7 19 -15 30
-8 10 -15 14 -15 8z"/>
<path d="M1221 804 c0 -11 3 -14 6 -6 3 7 2 16 -1 19 -3 4 -6 -2 -5 -13z"/>
<path d="M1360 771 c0 -11 31 -24 39 -16 3 3 -1 10 -9 15 -19 12 -30 12 -30 1z"/>
<path d="M1420 746 c0 -2 7 -6 15 -10 8 -3 15 -1 15 4 0 6 -7 10 -15 10 -8 0
-15 -2 -15 -4z"/>
<path d="M5017 654 c-4 -4 -7 -18 -7 -31 0 -28 23 -27 28 1 4 20 -11 40 -21
30z"/>
</g>
</svg>
