<?xml version="1.0" standalone="no"?>
<!DOCTYPE svg PUBLIC "-//W3C//DTD SVG 20010904//EN"
 "http://www.w3.org/TR/2001/REC-SVG-20010904/DTD/svg10.dtd">
<svg version="1.0" xmlns="http://www.w3.org/2000/svg"
 width="1080.000000pt" height="1920.000000pt" viewBox="0 0 1080.000000 1920.000000"
 preserveAspectRatio="xMidYMid meet">

<g transform="translate(0.000000,1920.000000) scale(0.100000,-0.100000)"
fill="#000000" stroke="none">
<path d="M0 9600 l0 -9600 5400 0 5400 0 0 9600 0 9600 -5400 0 -5400 0 0
-9600z m4110 5228 l21 -28 -73 0 c-55 1 -69 3 -55 11 19 11 22 50 7 80 -10 17
-22 19 -129 19 -117 0 -118 0 -129 -25 -17 -37 -15 -62 6 -74 13 -8 7 -10 -30
-11 l-46 0 20 23 c21 23 168 351 168 374 0 6 15 20 33 30 l32 20 77 -196 c43
-108 87 -208 98 -223z m1800 212 c44 -112 88 -212 97 -222 15 -17 13 -18 -58
-17 -41 1 -67 3 -57 6 24 6 30 31 17 70 l-11 33 -123 0 -124 0 -13 -41 c-11
-37 -10 -43 7 -55 17 -13 14 -14 -29 -14 -47 0 -48 0 -27 18 12 9 57 100 101
202 56 129 88 192 107 207 15 12 28 21 29 20 2 -1 39 -94 84 -207z m2440 -212
l21 -28 -73 0 c-55 1 -69 3 -55 11 19 11 22 50 7 80 -10 17 -22 19 -129 19
-117 0 -118 0 -129 -25 -17 -37 -15 -62 6 -74 13 -8 7 -10 -30 -11 l-46 0 20
23 c21 23 168 351 168 374 0 6 15 20 33 30 l32 20 77 -196 c43 -108 87 -208
98 -223z m-6414 393 c23 -10 45 -24 48 -30 4 -6 -5 -28 -19 -48 -17 -25 -25
-32 -25 -20 0 28 -28 75 -53 89 -12 6 -40 15 -62 19 -39 6 -38 7 15 8 34 0 70
-6 96 -18z m657 -6 c22 -10 41 -24 44 -31 3 -7 -8 -30 -23 -51 -42 -57 -46
-61 -39 -31 8 32 -16 88 -47 107 -11 7 -42 17 -67 22 -42 7 -40 8 24 5 43 -1
85 -9 108 -21z m2410 0 c22 -10 41 -24 44 -31 3 -7 -8 -30 -23 -51 -42 -57
-46 -61 -39 -31 8 32 -16 88 -47 107 -11 7 -42 17 -67 22 -42 7 -40 8 24 5 43
-1 85 -9 108 -21z m1435 0 c28 -13 52 -28 52 -32 0 -4 -16 -30 -35 -57 l-35
-50 0 42 c0 60 -38 100 -105 111 l-50 9 60 1 c44 1 74 -6 113 -24z m989 10
c21 -9 45 -23 54 -31 17 -15 15 -19 -18 -65 -19 -27 -36 -49 -37 -49 -1 0 0
17 2 39 6 56 -35 99 -103 110 l-50 9 58 1 c32 0 74 -6 94 -14z m1259 -4 c23
-10 44 -23 47 -28 3 -5 -4 -24 -16 -42 l-21 -34 -17 41 c-20 46 -45 63 -109
73 -45 6 -45 6 15 7 39 1 74 -5 101 -17z m398 -10 l35 -22 -26 -40 c-14 -21
-28 -39 -31 -39 -3 0 -3 3 1 6 10 10 -13 61 -39 85 -14 14 -44 26 -72 31 -39
6 -35 6 25 4 52 -2 81 -9 107 -25z m-7328 0 c-10 -11 -18 -36 -19 -55 -1 -49
32 -82 110 -106 34 -10 76 -26 93 -35 78 -40 76 -154 -4 -197 -18 -10 -18 -9
-2 13 24 35 21 91 -6 116 -13 12 -57 31 -98 43 -98 29 -140 69 -140 132 0 44
18 76 55 96 28 16 30 15 11 -7z m407 12 c-10 -3 -13 -54 -13 -203 0 -179 2
-200 18 -209 13 -8 0 -10 -50 -11 l-68 0 20 20 c18 18 20 33 20 196 0 102 -4
183 -10 195 -10 18 -7 19 42 18 29 0 47 -3 41 -6z m776 -153 c74 -88 139 -160
144 -160 14 0 4 270 -12 298 -11 21 -10 22 19 22 23 0 29 -3 23 -12 -4 -7 -10
-107 -13 -222 l-5 -208 -160 191 -160 191 -3 -137 c-3 -153 1 -195 24 -218 14
-13 11 -15 -26 -15 -41 0 -41 0 -26 22 13 18 16 55 16 192 0 160 -1 171 -22
193 l-21 23 44 0 44 0 134 -160z m474 153 c-10 -3 -13 -55 -13 -209 l0 -204
61 0 c72 0 121 20 150 62 12 16 23 28 25 26 6 -6 -21 -98 -28 -98 -5 0 -78 0
-163 0 l-154 0 24 25 c25 24 25 27 25 195 0 99 -4 179 -10 191 -10 18 -7 19
42 18 29 0 47 -3 41 -6z m987 -156 l135 -162 3 139 c2 112 0 143 -13 162 -15
24 -15 24 21 24 33 0 35 -2 23 -17 -11 -12 -14 -62 -14 -220 0 -111 -1 -203
-2 -203 0 0 -74 86 -163 192 l-161 191 3 -172 c3 -157 5 -174 22 -187 18 -13
16 -14 -29 -14 -45 0 -47 1 -29 14 17 13 19 30 22 191 3 172 3 178 -19 201
l-22 24 44 0 44 -1 135 -162z m842 154 c-10 -6 -13 -45 -10 -174 l3 -167 31
-31 c59 -58 151 -47 194 24 11 18 20 28 20 24 0 -20 -35 -66 -64 -83 -45 -27
-131 -25 -177 4 -59 36 -69 69 -69 232 0 78 -5 150 -10 161 -10 18 -7 19 42
19 32 0 48 -4 40 -9z m267 -8 c-10 -11 -16 -60 -20 -162 l-5 -146 -2 140 c-2
109 -6 146 -18 163 -15 22 -14 22 22 22 33 0 35 -2 23 -17z m721 -1 c-69 -34
-99 -139 -69 -245 13 -47 72 -115 116 -134 41 -16 115 -17 133 0 12 10 12 9 2
-4 -7 -9 -33 -22 -58 -28 -174 -44 -330 142 -255 304 27 58 106 123 151 125 8
0 -1 -8 -20 -18z m432 -87 l-3 -105 71 0 c62 0 74 3 95 25 l25 24 0 -51 0 -51
-23 21 c-19 18 -35 22 -95 22 l-72 0 0 -100 0 -100 75 0 c86 0 120 13 160 62
l27 33 -7 -29 c-3 -15 -9 -42 -12 -58 -4 -20 -10 -27 -20 -24 -8 4 -85 6 -171
6 -144 0 -155 1 -134 16 21 15 22 20 22 209 0 145 -3 195 -12 198 -7 3 7 6 32
6 l45 1 -3 -105z m228 96 c0 -5 3 -23 7 -42 l6 -33 -36 36 c-20 20 -49 38 -64
41 -15 2 -2 5 30 6 31 0 57 -3 57 -8z m763 2 c-10 -3 -13 -55 -13 -209 l0
-204 61 0 c72 0 121 20 150 62 12 16 23 28 25 26 6 -6 -21 -98 -28 -98 -5 0
-78 0 -163 0 l-154 0 24 25 c25 24 25 27 25 195 0 99 -4 179 -10 191 -10 18
-7 19 42 18 29 0 47 -3 41 -6z m848 -19 c-43 -55 -17 -113 64 -143 31 -12 61
-21 67 -21 6 0 31 -11 54 -25 56 -33 74 -82 51 -138 -15 -33 -68 -78 -92 -76
-5 0 0 5 11 11 25 12 44 48 44 84 0 38 -39 69 -118 93 -120 36 -170 99 -138
175 13 31 49 66 69 66 5 0 -1 -12 -12 -26z m379 6 c-26 -26 -26 -80 0 -113 15
-18 45 -34 103 -51 104 -32 137 -62 137 -127 -1 -48 -15 -72 -57 -101 -41 -26
-46 -22 -12 11 32 33 38 74 14 107 -15 22 -34 31 -125 59 -30 9 -66 25 -81 36
-59 41 -63 127 -8 173 36 31 58 35 29 6z m-6528 -20 c-41 -40 -56 -90 -49
-161 6 -70 38 -131 90 -173 34 -27 46 -31 102 -31 71 0 75 -9 12 -26 -89 -24
-205 29 -248 113 -30 58 -31 148 -3 203 20 38 94 105 116 105 5 0 -4 -13 -20
-30z m2410 0 c-41 -40 -56 -90 -49 -161 6 -70 38 -131 90 -173 34 -27 46 -31
102 -31 71 0 75 -9 12 -26 -89 -24 -205 29 -248 113 -30 58 -31 148 -3 203 20
38 94 105 116 105 5 0 -4 -13 -20 -30z m2450 0 c-40 -40 -56 -90 -49 -160 8
-90 48 -155 119 -191 50 -26 105 -24 164 5 l49 25 -34 -29 c-99 -85 -281 -46
-342 72 -30 58 -31 148 -3 203 20 38 94 105 116 105 5 0 -4 -13 -20 -30z
m-4556 -216 c-11 -11 -16 -35 -16 -79 0 -44 5 -68 16 -79 14 -15 11 -16 -30
-16 -37 0 -46 3 -47 18 0 9 -1 49 -2 87 l-2 70 -60 6 c-49 5 -41 6 48 7 99 2
107 1 93 -14z m2410 0 c-11 -11 -16 -35 -16 -79 0 -44 5 -68 16 -79 14 -15 11
-16 -30 -16 -37 0 -46 3 -47 18 0 9 -1 49 -2 87 l-2 70 -60 6 c-49 5 -41 6 48
7 99 2 107 1 93 -14z m1442 5 c-15 -8 -18 -24 -18 -84 0 -60 3 -76 18 -84 13
-8 7 -10 -30 -11 l-48 0 0 85 c0 94 3 90 -85 98 -22 2 10 4 70 5 79 1 105 -1
93 -9z m-4778 -87 c1 -31 36 -64 91 -83 l54 -20 -55 6 c-59 7 -140 38 -140 54
0 5 8 23 17 39 18 32 33 33 33 4z m6792 -64 c13 -7 41 -19 63 -25 l40 -13 -58
5 c-54 5 -103 22 -134 47 -9 7 -7 18 10 44 l22 33 17 -39 c9 -21 27 -44 40
-52z m361 14 c12 -12 41 -29 67 -37 55 -17 22 -20 -50 -4 -28 6 -62 21 -76 32
l-24 22 22 34 22 34 9 -29 c5 -16 19 -39 30 -52z m-3855 -238 c12 -8 22 -22
22 -30 0 -19 -6 -18 -30 6 -23 23 -49 25 -75 6 -27 -20 -12 -43 37 -56 53 -14
78 -36 78 -66 0 -65 -131 -75 -153 -11 -9 24 15 22 31 -3 15 -25 74 -27 93 -4
19 23 0 46 -51 61 -53 16 -70 29 -70 59 0 27 34 54 70 54 14 0 36 -7 48 -16z
m700 0 c12 -8 22 -22 22 -30 0 -20 -13 -18 -33 6 -20 24 -46 26 -73 6 -27 -21
-8 -48 43 -61 51 -13 73 -31 73 -61 0 -50 -99 -75 -140 -34 -11 11 -20 25 -20
30 0 18 25 11 38 -11 10 -15 21 -19 50 -17 33 3 37 6 37 32 0 25 -5 30 -43 41
-54 16 -72 31 -72 61 0 27 34 54 70 54 14 0 36 -7 48 -16z m1533 0 c42 -21 64
-75 49 -120 -22 -64 -90 -92 -155 -62 -54 24 -71 105 -34 152 37 47 88 58 140
30z m-4847 -10 c19 -18 20 -28 5 -55 -8 -16 -7 -25 5 -38 43 -48 2 -91 -86
-91 l-58 0 0 100 0 100 59 0 c41 0 65 -5 75 -16z m236 6 c0 -5 -25 -10 -55
-10 -54 0 -55 0 -55 -30 0 -29 1 -30 50 -30 38 0 50 -4 50 -15 0 -11 -12 -15
-51 -15 l-50 0 3 -32 c3 -33 4 -33 61 -36 81 -4 71 -22 -13 -22 l-70 0 0 100
0 100 65 0 c37 0 65 -4 65 -10z m110 -80 l0 -90 50 0 c28 0 50 -4 50 -10 0 -6
-28 -10 -65 -10 l-65 0 0 100 c0 82 3 100 15 100 12 0 15 -17 15 -90z m301 -4
c22 -49 39 -93 39 -98 0 -18 -21 -6 -30 17 -9 22 -15 25 -65 25 -50 0 -55 -2
-61 -25 -3 -14 -13 -25 -21 -25 -8 0 -13 6 -10 13 59 142 82 187 95 185 8 -2
32 -43 53 -92z m189 15 c0 -74 -2 -81 -26 -100 -28 -22 -74 -29 -74 -11 0 6 9
10 20 10 41 0 60 34 60 110 0 40 4 70 10 70 6 0 10 -33 10 -79z m221 -15 c22
-49 39 -93 39 -98 0 -18 -21 -6 -30 17 -9 22 -15 25 -65 25 -50 0 -55 -2 -61
-25 -3 -14 -13 -25 -21 -25 -8 0 -13 6 -10 13 59 142 82 187 95 185 8 -2 32
-43 53 -92z m253 72 c22 -31 20 -54 -6 -80 l-21 -21 22 -39 c16 -28 18 -38 8
-38 -7 0 -23 18 -36 40 -18 32 -28 40 -52 40 -27 0 -29 -2 -29 -40 0 -29 -4
-40 -15 -40 -12 0 -15 18 -15 100 l0 100 64 0 c56 0 67 -3 80 -22z m340 6 c19
-18 20 -28 5 -55 -8 -16 -7 -25 5 -38 43 -48 2 -91 -86 -91 l-58 0 0 100 0
100 59 0 c41 0 65 -5 75 -16z m219 -46 c14 -35 33 -80 41 -100 13 -31 14 -38
3 -38 -8 0 -19 11 -25 25 -10 22 -18 25 -62 25 -45 0 -52 -3 -60 -25 -9 -23
-30 -35 -30 -17 0 8 66 167 76 183 14 23 34 4 57 -53z m157 17 l0 -46 58 3 57
3 3 43 c6 83 22 41 22 -58 0 -60 -4 -100 -10 -100 -5 0 -10 20 -10 45 l0 45
-60 0 -60 0 0 -45 c0 -33 -4 -45 -15 -45 -12 0 -15 18 -15 100 0 82 3 100 15
100 11 0 15 -12 15 -45z m333 28 c2 -10 21 -55 40 -100 25 -57 32 -83 23 -83
-7 0 -18 11 -24 25 -10 22 -18 25 -62 25 -44 0 -52 -3 -62 -25 -6 -14 -17 -25
-24 -25 -8 0 2 35 29 100 29 70 46 100 58 100 9 0 19 -8 22 -17z m480 -45 c14
-35 33 -80 41 -100 13 -31 14 -38 3 -38 -8 0 -19 11 -25 25 -10 22 -18 25 -62
25 -45 0 -52 -3 -60 -25 -9 -23 -30 -35 -30 -17 0 8 66 167 76 183 14 23 34 4
57 -53z m267 -38 c0 -60 -4 -100 -10 -100 -6 0 -10 40 -10 100 0 60 4 100 10
100 6 0 10 -40 10 -100z m353 55 c16 -25 32 -45 35 -45 4 0 19 20 34 45 15 25
35 45 43 45 12 0 5 -16 -25 -59 -30 -46 -40 -70 -40 -100 0 -23 -4 -41 -10
-41 -5 0 -10 16 -10 36 0 20 -8 48 -18 62 -10 15 -29 44 -41 65 -34 55 -3 48
32 -8z m328 -49 c22 -49 39 -93 39 -98 0 -18 -21 -6 -30 17 -9 22 -15 25 -65
25 -50 0 -55 -2 -61 -25 -3 -14 -13 -25 -21 -25 -8 0 -13 6 -10 13 59 142 82
187 95 185 8 -2 32 -43 53 -92z m253 72 c22 -31 20 -54 -6 -80 l-21 -21 22
-39 c16 -28 18 -38 8 -38 -7 0 -23 18 -36 40 -18 32 -28 40 -52 40 -27 0 -29
-2 -29 -40 0 -29 -4 -40 -15 -40 -12 0 -15 18 -15 100 l0 100 64 0 c56 0 67
-3 80 -22z m227 -77 c44 -106 43 -101 29 -101 -6 0 -16 11 -22 25 -10 22 -17
25 -63 25 -46 0 -53 -3 -63 -25 -6 -14 -16 -25 -22 -25 -14 0 -13 3 16 73 15
34 33 77 41 95 8 21 20 32 29 30 9 -2 33 -44 55 -97z m244 89 c-3 -5 -19 -10
-36 -10 l-29 0 0 -90 c0 -53 -4 -90 -10 -90 -6 0 -10 37 -10 90 l0 90 -35 0
c-19 0 -35 5 -35 10 0 6 34 10 81 10 51 0 78 -4 74 -10z m560 -68 l60 -77 3
78 c4 113 22 95 22 -23 0 -55 -4 -100 -9 -100 -5 0 -38 36 -73 80 l-63 80 -3
-80 c-4 -116 -22 -100 -22 20 0 74 3 100 13 99 6 0 39 -35 72 -77z m205 -12
l0 -90 50 0 c28 0 50 -4 50 -10 0 -6 -27 -10 -60 -10 l-60 0 0 100 c0 60 4
100 10 100 6 0 10 -37 10 -90z m200 -10 c0 -60 -4 -100 -10 -100 -6 0 -10 40
-10 100 0 60 4 100 10 100 6 0 10 -40 10 -100z m185 22 l60 -77 3 78 c4 113
22 95 22 -23 0 -55 -4 -100 -9 -100 -5 0 -38 36 -73 80 l-63 80 -3 -80 c-4
-116 -22 -100 -22 20 0 74 3 100 13 99 6 0 39 -35 72 -77z m315 68 c0 -5 -25
-10 -55 -10 -54 0 -55 0 -55 -30 0 -29 2 -30 45 -30 33 0 45 -4 45 -15 0 -11
-12 -15 -45 -15 -45 0 -45 0 -45 -35 l0 -35 55 0 c30 0 55 -4 55 -10 0 -6 -30
-10 -70 -10 l-70 0 0 100 0 100 70 0 c40 0 70 -4 70 -10z m-6083 -11395 c22
-16 33 -52 65 -215 19 -97 22 -142 28 -477 0 -22 49 -15 64 10 8 12 24 63 36
112 11 50 31 124 45 165 13 41 31 121 39 178 18 119 27 139 62 148 35 9 62
-19 70 -72 11 -73 -16 -308 -52 -458 -54 -223 -48 -333 31 -545 13 -37 14 -56
6 -110 -5 -36 -13 -95 -16 -131 -4 -36 -13 -94 -20 -130 -7 -36 -19 -117 -25
-180 -6 -63 -20 -207 -31 -320 -14 -147 -18 -237 -13 -317 l7 -113 -247 0
-247 0 7 22 c4 13 8 52 9 88 7 205 21 330 35 330 6 0 10 9 10 20 0 11 -4 20
-10 20 -5 0 -10 5 -10 11 0 5 5 7 10 4 9 -6 12 4 15 60 1 11 5 26 9 33 13 21
17 90 5 97 -5 4 -7 15 -4 25 4 13 -5 24 -38 43 -37 22 -51 40 -96 129 -45 88
-55 120 -72 216 -10 62 -24 122 -29 133 -6 11 -8 24 -5 29 3 6 1 10 -5 10 -7
0 -10 6 -7 13 5 13 35 11 55 -5 10 -9 9 -14 -3 -28 -16 -18 -11 -30 13 -30 8
0 28 -11 44 -25 57 -48 109 -69 174 -70 46 -1 69 -7 93 -24 l31 -22 10 26 c5
14 10 29 10 31 0 16 63 94 76 94 8 0 29 -7 45 -16 36 -18 49 -12 25 12 -10 9
-15 23 -11 32 3 8 -3 21 -15 29 -11 8 -20 21 -20 29 0 8 -9 14 -20 14 -13 0
-20 7 -20 19 0 26 -15 34 -29 17 -16 -19 -122 -29 -172 -16 -23 7 -55 24 -70
40 -31 30 -39 29 -39 -7 0 -22 -3 -24 -32 -17 -18 3 -46 17 -61 30 -39 33 -75
34 -42 1 12 -13 10 -15 -17 -21 -17 -3 -33 -5 -35 -3 -2 2 9 39 24 83 25 71
32 81 68 100 39 20 40 22 43 77 2 31 -4 89 -13 129 -9 44 -19 167 -25 308 -9
221 -8 237 9 260 12 16 28 25 46 25 50 0 63 -33 75 -195 6 -80 16 -174 22
-210 6 -36 13 -105 17 -155 5 -71 9 -90 21 -90 30 0 45 75 33 167 -5 45 -11
157 -12 248 -1 91 -6 194 -11 230 -13 85 -13 86 6 104 19 20 53 20 81 1z
m2350 -12 c26 -39 31 -321 9 -499 -20 -173 -11 -407 17 -412 21 -4 69 27 171
111 101 82 191 113 250 86 41 -19 42 -41 1 -74 -81 -66 -284 -272 -300 -305
-10 -19 -46 -64 -79 -100 -34 -36 -91 -99 -126 -140 -36 -41 -81 -92 -102
-112 -46 -46 -54 -96 -45 -288 13 -260 41 -621 54 -682 l5 -28 -245 0 -245 0
-7 23 c-5 12 -9 139 -10 282 -2 147 -9 301 -16 355 -7 52 -13 120 -14 151 0
32 -6 63 -14 72 -12 15 -11 17 3 17 16 0 16 1 1 16 -13 13 -13 19 -3 31 10 12
9 18 -7 29 -39 27 -45 35 -66 102 -31 96 -35 217 -14 396 18 145 20 152 50
182 36 37 92 56 132 45 23 -6 29 -15 36 -52 12 -66 28 -122 33 -116 2 2 0 42
-6 88 -19 143 -12 171 46 195 37 16 79 10 107 -14 16 -14 17 -12 17 27 0 86
91 122 160 64 36 -30 50 -21 50 32 0 17 9 86 21 155 11 69 24 178 28 242 4 71
12 123 20 132 22 26 68 20 88 -11z m1231 -328 c26 -31 28 -52 5 -77 -20 -22
-37 -23 -58 -1 -16 15 -19 15 -49 0 -17 -9 -55 -18 -85 -19 -52 -3 -56 -5 -75
-42 -12 -22 -35 -46 -53 -55 -33 -17 -59 -56 -43 -66 5 -3 11 -1 15 5 9 14 40
13 53 -2 14 -17 -10 -87 -38 -110 -24 -19 -25 -28 -5 -28 8 0 15 4 15 10 0 5
16 27 35 49 28 31 44 40 76 43 l40 4 -7 -41 c-3 -22 -15 -67 -25 -100 -10 -33
-22 -88 -25 -123 -6 -57 -5 -65 16 -87 43 -46 112 -28 200 50 37 33 56 43 63
36 18 -18 28 -12 17 10 -15 26 18 95 70 150 39 41 69 49 90 24 10 -12 10 -23
-3 -58 -9 -23 -20 -74 -23 -113 l-7 -71 -76 -86 c-116 -130 -148 -170 -182
-228 -18 -30 -57 -92 -88 -138 -136 -203 -148 -245 -131 -472 10 -146 40 -412
59 -527 l8 -52 -241 2 -241 3 -6 240 c-7 252 -16 339 -43 418 -15 43 -15 51 0
85 12 30 16 92 19 332 4 401 7 418 81 560 33 63 75 153 93 200 36 90 65 126
164 198 107 79 207 115 302 107 48 -4 64 -10 83 -30z m1970 -10 c34 -30 42
-33 70 -26 40 12 99 -2 126 -29 25 -24 26 -73 9 -315 -8 -113 -18 -177 -41
-260 -68 -240 -83 -319 -98 -500 -17 -212 -20 -768 -5 -870 6 -38 11 -78 11
-87 0 -17 -19 -18 -259 -18 l-259 0 -6 27 c-3 16 -3 120 0 233 2 113 6 295 8
405 3 110 7 245 10 299 4 75 1 106 -10 127 -14 28 -14 29 18 38 l33 9 -32 7
c-34 8 -73 59 -73 96 0 12 -7 19 -19 19 -17 0 -30 22 -36 60 -1 9 -8 34 -15
55 -9 26 -14 91 -14 185 -1 125 2 150 19 185 17 35 28 43 80 60 33 11 62 21
64 22 2 1 -4 9 -13 18 -9 9 -16 21 -16 26 0 14 71 40 92 33 21 -6 42 -50 34
-71 -3 -8 1 -24 8 -36 8 -12 22 -49 30 -83 9 -34 22 -76 30 -95 8 -19 17 -55
21 -82 6 -40 10 -46 22 -36 8 7 20 26 28 43 28 64 56 86 114 91 52 4 84 15 43
15 -21 0 -62 43 -62 65 0 6 7 26 16 43 14 29 14 35 -5 77 -11 25 -24 45 -30
45 -15 0 -25 -58 -23 -138 2 -70 1 -73 -25 -83 -22 -8 -32 -6 -52 9 -34 25
-37 46 -12 71 17 17 19 25 10 51 -6 17 -20 35 -30 41 -11 5 -39 49 -63 97 -27
52 -46 81 -49 72 -3 -8 -8 -22 -10 -30 -3 -8 -6 -4 -6 10 -1 33 26 110 46 133
25 27 89 22 126 -9 30 -26 31 -26 47 -7 43 53 95 56 148 8z m-985 -48 c18 -8
49 -35 70 -60 21 -26 51 -54 67 -64 34 -20 47 -47 59 -124 5 -32 21 -80 35
-108 14 -28 26 -57 26 -65 0 -8 -22 -42 -49 -74 -27 -33 -66 -86 -87 -118 -20
-33 -41 -61 -45 -64 -4 -3 -32 -54 -63 -115 -31 -60 -74 -132 -95 -160 -56
-71 -89 -130 -114 -205 -19 -57 -22 -85 -21 -230 1 -94 11 -247 23 -355 12
-104 24 -218 28 -252 l6 -63 -227 0 -228 0 3 232 c1 128 -1 249 -5 268 -3 19
-8 62 -10 96 -2 33 -10 74 -19 90 -29 57 -29 87 -2 145 15 32 25 72 25 99 0
25 6 54 14 65 15 22 14 71 -3 179 -7 39 -10 157 -8 275 3 230 -3 203 82 316
17 23 59 96 94 164 40 77 72 126 85 131 36 15 322 12 359 -3z m-3454 -68 c29
-29 33 -30 67 -19 48 16 103 0 131 -38 29 -39 36 -101 24 -197 l-10 -80 41
-83 c24 -49 43 -103 46 -130 4 -44 0 -53 -57 -139 -105 -161 -179 -310 -186
-378 -8 -72 21 -764 35 -850 5 -33 10 -63 10 -68 0 -4 -116 -6 -257 -5 l-258
3 -1 355 c0 379 -6 499 -22 509 -5 3 -27 74 -48 156 -38 148 -39 153 -39 330
1 137 5 195 18 241 9 34 17 88 18 120 1 148 27 200 99 197 37 -2 42 1 60 37
30 59 83 78 126 45 26 -20 41 -19 71 5 40 31 95 27 132 -11z m5336 0 c33 -29
38 -30 65 -19 45 19 93 5 131 -37 l32 -37 -6 -130 -5 -131 34 -65 c18 -36 39
-86 45 -111 l12 -46 -62 -99 c-85 -134 -169 -290 -183 -339 -6 -22 -10 -98
-10 -168 2 -142 28 -659 38 -750 l7 -57 -259 2 -258 3 -4 94 c-2 51 1 198 7
325 9 192 9 245 -3 311 -10 56 -11 86 -4 99 8 15 6 23 -10 35 -12 10 -25 36
-31 66 -5 28 -19 86 -31 130 -44 169 -46 401 -5 555 8 30 15 84 15 120 1 78
13 137 34 158 8 8 37 17 64 20 43 4 51 8 56 28 8 32 45 64 73 64 12 0 38 -8
58 -17 35 -16 36 -16 57 5 35 34 98 30 143 -9z m-6786 -655 c1 -1 0 -8 -4 -14
-6 -9 -10 -9 -16 1 -6 10 -9 11 -9 2 0 -7 -4 -13 -8 -13 -4 0 -8 9 -8 20 0 15
5 19 21 14 11 -4 22 -8 24 -10z m141 2 c0 -2 3 -11 6 -20 4 -12 0 -16 -15 -16
-14 0 -21 6 -21 20 0 11 7 20 15 20 8 0 15 -2 15 -4z m278 -18 c2 -11 -6 -22
-23 -30 -22 -10 -29 -9 -47 10 l-22 21 25 10 c34 14 63 9 67 -11z m-89 -44
c37 -35 -51 -61 -97 -28 -28 19 -28 26 1 40 26 14 76 8 96 -12z m-159 6 c0 -5
-2 -10 -4 -10 -3 0 -8 5 -11 10 -3 6 -1 10 4 10 6 0 11 -4 11 -10z"/>
<path d="M3826 15059 c-31 -72 -55 -134 -53 -136 3 -2 54 -2 115 -1 l110 3
-50 125 c-27 69 -53 129 -57 133 -5 5 -34 -51 -65 -124z"/>
<path d="M5720 15064 c-30 -70 -56 -131 -58 -135 -2 -5 49 -9 113 -9 64 0 115
4 113 9 -49 127 -104 261 -108 261 -3 0 -30 -57 -60 -126z"/>
<path d="M8066 15059 c-31 -72 -55 -134 -53 -136 3 -2 54 -2 115 -1 l110 3
-50 125 c-27 69 -53 129 -57 133 -5 5 -34 -51 -65 -124z"/>
<path d="M7175 14590 c-29 -11 -44 -32 -51 -68 -5 -26 -1 -36 24 -62 39 -38
83 -40 117 -5 37 36 34 86 -6 119 -32 27 -50 30 -84 16z"/>
<path d="M2310 14560 c0 -30 1 -31 43 -28 37 3 42 6 42 28 0 22 -5 25 -42 28
-42 3 -43 2 -43 -28z"/>
<path d="M2310 14470 c0 -39 1 -40 34 -40 49 0 66 9 66 34 0 32 -19 46 -62 46
-38 0 -38 0 -38 -40z"/>
<path d="M2986 14536 c-10 -26 -16 -49 -13 -52 3 -3 21 -4 41 -2 l36 3 -23 49
-23 50 -18 -48z"/>
<path d="M3396 14536 c-10 -26 -16 -49 -13 -52 3 -3 21 -4 41 -2 l36 3 -23 49
-23 50 -18 -48z"/>
<path d="M3610 14550 c0 -40 0 -40 38 -40 43 0 62 14 62 46 0 25 -17 34 -66
34 -33 0 -34 -1 -34 -40z"/>
<path d="M3960 14560 c0 -30 1 -31 43 -28 37 3 42 6 42 28 0 22 -5 25 -42 28
-42 3 -43 2 -43 -28z"/>
<path d="M3960 14470 c0 -39 1 -40 34 -40 49 0 66 9 66 34 0 32 -19 46 -62 46
-38 0 -38 0 -38 -40z"/>
<path d="M4221 14535 c-12 -26 -21 -49 -21 -51 0 -2 18 -4 40 -4 22 0 40 4 40
9 0 5 -9 28 -19 51 l-19 43 -21 -48z"/>
<path d="M4726 14530 c-9 -22 -16 -43 -16 -45 0 -3 18 -5 41 -5 35 0 40 3 34
18 -4 9 -12 29 -17 45 -14 37 -23 34 -42 -13z"/>
<path d="M5191 14535 c-12 -26 -21 -49 -21 -51 0 -2 18 -4 40 -4 22 0 40 4 40
9 0 5 -9 28 -19 51 l-19 43 -21 -48z"/>
<path d="M6126 14536 c-10 -26 -16 -49 -13 -52 3 -3 21 -4 41 -2 l36 3 -23 49
-23 50 -18 -48z"/>
<path d="M6340 14550 c0 -40 0 -40 38 -40 43 0 62 14 62 46 0 25 -17 34 -66
34 -33 0 -34 -1 -34 -40z"/>
<path d="M6602 14530 l-21 -50 44 0 44 0 -21 48 c-11 26 -22 48 -23 50 -1 1
-12 -20 -23 -48z"/>
<path d="M2370 1655 c0 -5 5 -17 10 -25 5 -8 10 -10 10 -5 0 6 -5 17 -10 25
-5 8 -10 11 -10 5z"/>
<path d="M2450 1607 c0 -10 8 -17 18 -17 9 0 13 4 7 8 -5 4 -13 11 -17 16 -5
5 -8 2 -8 -7z"/>
<path d="M4285 2368 c5 -155 2 -161 -67 -161 -36 0 -45 5 -64 33 l-23 33 -3
-44 c-3 -40 -6 -45 -38 -55 -31 -10 -38 -9 -61 10 -26 21 -79 100 -79 117 0 5
-6 9 -14 9 -15 0 -26 -21 -26 -50 0 -10 -6 -20 -12 -22 -8 -3 6 -27 36 -61 34
-40 57 -58 79 -62 18 -3 53 -9 78 -14 48 -8 78 -2 196 40 66 23 148 86 125 96
-16 6 3 33 25 33 32 0 -1 19 -51 30 -30 6 -59 17 -65 24 -6 7 -17 50 -25 97
l-15 84 4 -137z m-62 -215 c-7 -2 -19 -2 -25 0 -7 3 -2 5 12 5 14 0 19 -2 13
-5z"/>
<path d="M3931 2334 c0 -11 3 -14 6 -6 3 7 2 16 -1 19 -3 4 -6 -2 -5 -13z"/>
<path d="M5170 1501 c0 -11 5 -23 10 -26 6 -4 10 5 10 19 0 14 -4 26 -10 26
-5 0 -10 -9 -10 -19z"/>
<path d="M7928 2570 c-5 -36 7 -50 16 -17 8 31 7 47 -3 47 -5 0 -11 -14 -13
-30z"/>
<path d="M7342 2448 c4 -20 1 -28 -9 -28 -11 0 -12 -4 -1 -22 7 -13 12 -27 13
-33 0 -5 14 -24 30 -41 17 -17 50 -54 74 -83 43 -52 94 -91 119 -91 7 0 -2 14
-20 31 -18 17 -27 27 -19 24 7 -4 17 -2 21 5 10 16 1 50 -13 50 -12 0 -76 72
-94 107 -7 13 -20 35 -28 51 -8 15 -15 33 -15 40 0 6 -4 12 -10 12 -5 0 -10
-7 -10 -17 0 -14 -2 -14 -21 3 -22 19 -22 19 -17 -8z"/>
<path d="M7917 2446 c-3 -8 8 -19 30 -30 48 -23 61 -9 18 20 -42 28 -41 28
-48 10z"/>
<path d="M7616 2171 c-4 -7 -5 -15 -2 -18 9 -9 19 4 14 18 -4 11 -6 11 -12 0z"/>
<path d="M6652 2664 c2 -23 -2 -29 -27 -36 -16 -4 -38 -5 -47 -2 -15 4 -18 -1
-18 -26 0 -17 -7 -42 -16 -55 -15 -23 -15 -26 5 -51 18 -23 20 -36 15 -71 -6
-40 -5 -43 16 -43 20 0 22 -4 17 -35 -5 -28 -2 -35 11 -36 131 -9 190 -5 235
15 26 11 47 26 47 32 0 6 11 21 24 33 20 19 28 21 44 12 12 -6 29 -11 38 -11
15 0 14 3 -6 25 -20 21 -21 25 -7 31 13 4 14 10 7 24 -6 10 -8 25 -6 32 2 7 7
32 10 55 l6 41 -63 6 c-153 13 -194 21 -228 47 -58 44 -61 44 -57 13z"/>
<path d="M3434 2525 c-8 -31 -3 -38 20 -29 20 8 21 28 1 44 -12 10 -15 7 -21
-15z"/>
<path d="M2954 2482 c2 -37 10 -60 37 -96 35 -49 75 -74 91 -58 5 5 -4 14 -22
22 -34 14 -48 37 -74 117 -23 69 -35 74 -32 15z"/>
<path d="M3264 2503 c-3 -16 -7 -34 -10 -41 -5 -17 23 -27 39 -14 7 6 34 14
61 19 56 9 63 30 9 25 -25 -2 -45 3 -64 17 l-29 21 -6 -27z"/>
<path d="M3117 2513 c-10 -9 -9 -62 2 -98 4 -17 5 -39 1 -50 -7 -19 20 -69 59
-110 10 -11 22 -35 26 -53 8 -39 34 -52 101 -52 40 0 49 5 90 47 40 41 48 45
65 35 24 -15 29 -15 29 2 0 8 9 21 20 29 21 14 21 15 -6 21 -24 6 -26 10 -21
41 6 38 1 42 -29 20 -27 -20 -51 -19 -123 10 l-64 25 -27 -20 c-36 -26 -62
-25 -85 1 -18 19 -18 21 -2 52 11 21 15 40 10 52 -10 27 -38 57 -46 48z"/>
<path d="M8770 2522 c0 -26 11 -34 27 -21 10 9 10 15 2 25 -16 19 -29 17 -29
-4z"/>
<path d="M8596 2508 c-9 -34 -7 -68 3 -68 5 0 25 7 44 15 20 8 50 15 67 15 19
0 30 5 30 14 0 11 -9 13 -36 9 -27 -4 -42 -1 -64 16 -36 26 -36 26 -44 -1z"/>
<path d="M8293 2505 c4 -9 2 -24 -4 -31 -9 -11 -5 -24 16 -57 45 -69 66 -87
99 -87 l31 0 -35 18 c-22 11 -42 32 -54 57 -11 22 -23 48 -28 57 -4 10 -8 24
-8 32 0 8 -5 18 -12 22 -8 5 -9 2 -5 -11z"/>
<path d="M8452 2425 c2 -52 5 -95 8 -95 3 0 14 -15 25 -32 10 -18 23 -36 29
-40 5 -3 17 -26 26 -50 15 -41 17 -43 70 -52 65 -10 112 10 137 57 14 29 22
30 67 11 16 -6 18 -4 13 9 -4 10 1 22 14 30 20 14 20 14 -1 20 -15 4 -20 13
-20 42 0 20 -3 35 -7 33 -5 -2 -20 -10 -35 -17 -30 -15 -80 -6 -141 25 -26 13
-32 12 -67 -8 -31 -18 -42 -20 -63 -11 -33 15 -40 47 -16 77 12 16 16 27 9 31
-6 4 -8 11 -4 16 6 10 -27 49 -41 49 -3 0 -4 -43 -3 -95z"/>
</g>
</svg>
